<?xml version="1.0" encoding="utf-8"?>
<!-- Generator: Adobe Illustrator 27.8.0, SVG Export Plug-In . SVG Version: 6.00 Build 0)  -->
<svg version="1.1" id="Layer_1" xmlns="http://www.w3.org/2000/svg" xmlns:xlink="http://www.w3.org/1999/xlink" x="0px" y="0px"
	 viewBox="0 0 619.7 260" style="enable-background:new 0 0 619.7 260;" xml:space="preserve">
<style type="text/css">
	
		.st0{fill:none;stroke:#FF6333;stroke-width:7.4822;stroke-linecap:round;stroke-linejoin:round;stroke-miterlimit:10;stroke-dasharray:1.247,18.7054;}
	.st1{fill:#FF6333;}
	.st2{fill:#FFFFFF;}
	.st3{fill:none;stroke:#FFFFFF;stroke-width:12.4014;stroke-linecap:round;stroke-linejoin:round;stroke-miterlimit:10;}
	.st4{fill:none;stroke:#FF6333;stroke-width:4.5581;stroke-linecap:round;stroke-linejoin:round;stroke-miterlimit:10;}
</style>
<path class="st0" d="M101.6,195.1c-17.4,17.4-45.1,14.1-63.8-4.6s-19.8-47.9-2.4-65.3"/>
<path class="st1" d="M58.1,127.3c-0.5,0-1,0.2-1.4,0.6c-13.1,13.6-14.1,34.2-2.3,46c11.8,11.8,33.1,10.7,46.7-2.3
	c0.4-0.4,0.6-0.9,0.6-1.4v-40.9c0-1.1-0.9-1.9-1.9-1.9L58.1,127.3z"/>
<g>
	<path class="st2" d="M281.1,76.2l-29.4-66h13l23.7,55.4h-3.9l23.7-55.4h12.6l-29.4,66L281.1,76.2L281.1,76.2z"/>
	<path class="st2" d="M342.1,77c-5.3,0-9.9-1-13.6-3c-3.7-1.9-6.7-4.8-8.7-8.4c-2-3.7-3.1-8.1-3.1-13.1c0-4.9,1-9.2,2.9-13
		c1.9-3.7,4.6-6.5,8.1-8.6c3.5-2.1,7.5-3.1,12.1-3.1c4.5,0,8.4,1,11.4,2.9c3.1,1.9,5.4,4.6,7,8.2c1.6,3.5,2.4,7.6,2.4,12.3v3.1
		h-34.5v-6.2h26.1l-1.6,1.3c0-4.3-1-7.7-2.8-10c-1.8-2.3-4.5-3.5-8-3.5c-2.6,0-4.8,0.7-6.6,1.9c-1.8,1.2-3.2,3.1-4,5.4
		c-1,2.3-1.4,5.1-1.4,8.5V53c0,5.1,1.2,8.9,3.7,11.4c2.5,2.5,6.1,3.7,10.8,3.7c2.7,0,5.2-0.4,7.5-1.1c2.3-0.7,4.6-1.9,6.7-3.5
		l3.5,7.9c-2.2,1.8-4.9,3.2-8.1,4.2C349,76.5,345.6,77,342.1,77z"/>
	<path class="st2" d="M369,76.2V40.6c0-1.9-0.1-3.9-0.2-5.9c-0.1-2-0.3-3.9-0.6-5.9h11.3l1,9.4h-1.1c1.5-3.3,3.7-5.9,6.6-7.6
		c3-1.8,6.3-2.7,10.2-2.7c5.6,0,9.7,1.5,12.6,4.7c2.8,3.2,4.2,8,4.2,14.6v28.9h-11.7V47.7c0-3.8-0.8-6.5-2.2-8.2s-3.6-2.5-6.6-2.5
		c-3.6,0-6.5,1.2-8.6,3.4c-2.1,2.2-3.2,5.3-3.2,9v26.7H369z"/>
	<path class="st2" d="M442.2,77c-4.1,0-7.8-1-10.9-3c-3.2-1.9-5.6-4.8-7.3-8.4c-1.7-3.7-2.6-8.1-2.6-13.2c0-5.1,0.9-9.5,2.6-13.2
		c1.7-3.7,4.2-6.4,7.3-8.5c3.1-1.9,6.7-3,10.9-3c4,0,7.5,1,10.6,3c3.1,1.9,5,4.6,6,7.9h-1.1l1.1-9.9H470c-0.2,1.9-0.4,3.9-0.5,5.9
		c-0.2,2-0.2,3.9-0.2,5.9v35.5h-11.7l-0.1-9.7h1.1c-1,3.3-3.1,5.9-6,7.8C449.5,76.1,446,77,442.2,77z M445.5,68.1
		c3.6,0,6.6-1.2,8.9-3.8c2.2-2.6,3.4-6.5,3.4-11.7s-1.1-9.1-3.4-11.7s-5.2-3.8-8.9-3.8c-3.6,0-6.6,1.2-8.9,3.8
		c-2.2,2.6-3.4,6.4-3.4,11.7s1.1,9.1,3.4,11.7C438.7,66.8,441.7,68.1,445.5,68.1z"/>
	<path class="st2" d="M484.8,76.2V37.7h-9.1v-8.8h12.4l-3.3,3v-7.2c0-5.9,1.4-10.3,4.4-13.2s7.3-4.5,13-4.5c1.3,0,2.8,0.1,4.3,0.3
		s2.9,0.6,3.9,1.1v9.2c-0.8-0.3-1.8-0.6-2.9-0.8c-1.1-0.2-2.2-0.3-3.3-0.3c-2.4,0-4.3,0.7-5.8,2.1s-2.1,3.6-2.1,6.8V31l-1.7-2h32.8
		v47.2h-11.7V37.7h-19.4v38.5L484.8,76.2L484.8,76.2z M515.3,20V8.6h13.1V20C528.3,20,515.3,20,515.3,20z"/>
</g>
<polyline class="st3" points="108,23.1 108,108.2 22.9,108.1 "/>
<polyline class="st3" points="122.3,206.1 122.3,121 207.4,121.1 "/>
<polyline class="st4" points="162.1,99.6 130.9,99.6 130.9,68.3 "/>
<g>
	<path class="st2" d="M259.5,219.4V115.7h63v7.8h-53.8v39.6h50.7v7.8h-50.7v48.5L259.5,219.4L259.5,219.4z"/>
	<path class="st2" d="M329.9,127.6v-11.2h12.1v11.2H329.9z M331.3,219.4v-73.7h9v73.7H331.3z"/>
	<path class="st2" d="M355.9,219.4v-56.5c0-2.8-0.1-5.7-0.2-8.6s-0.4-5.8-0.8-8.6h8.8l1.2,16.9l-1.8,0.1c1-4.1,2.7-7.5,5.3-10.2
		c2.5-2.7,5.5-4.7,8.8-6.1c3.3-1.4,6.8-2.1,10.3-2.1c1.3,0,2.5,0.1,3.6,0.2c1.1,0.1,2.2,0.4,3.2,0.7l-0.3,8.1
		c-1.2-0.4-2.4-0.6-3.5-0.7s-2.5-0.1-3.8-0.1c-4.4,0-8.3,1.1-11.5,3.2c-3.3,2.2-5.8,4.9-7.6,8.2c-1.8,3.3-2.6,6.7-2.6,10.1v45.3
		L355.9,219.4L355.9,219.4z"/>
	<path class="st2" d="M429.3,220.6c-11.2,0-20-3.3-26.5-10s-9.8-15.9-9.8-27.8c0-7.8,1.5-14.6,4.3-20.3c2.9-5.7,6.9-10.1,12.1-13.3
		c5.2-3.2,11.2-4.8,18.1-4.8c6.6,0,12.1,1.4,16.6,4.2c4.5,2.8,8,6.8,10.4,11.9c2.5,5.1,3.7,11.2,3.7,18.3v4.1h-58.8v-6.5h53.2
		l-2.5,1.9c0-8.3-1.9-14.9-5.7-19.6c-3.8-4.8-9.5-7.1-17.1-7.1c-8,0-14.3,2.8-18.8,8.3c-4.5,5.5-6.8,12.9-6.8,22v1
		c0,9.8,2.4,17.3,7.3,22.4s11.6,7.6,20.4,7.6c4.5,0,8.7-0.7,12.6-2.1c3.9-1.4,7.7-3.7,11.3-7.1l3.7,6.6c-3.1,3.2-7.2,5.7-12.2,7.5
		C439.9,219.7,434.7,220.6,429.3,220.6z"/>
	<path class="st2" d="M475.2,219.4v-66.5h-14.7v-7.2h16.9l-2.2,2.4v-12.8c0-7.8,2-13.9,5.9-18.2c3.9-4.3,9.5-6.5,16.8-6.5
		c1.9,0,3.8,0.2,5.7,0.5c2,0.3,3.6,0.8,4.9,1.2v7.9c-1.2-0.5-2.6-0.9-4.3-1.3c-1.7-0.4-3.4-0.6-5.3-0.6c-3.2,0-6,0.7-8.2,2.1
		c-2.2,1.4-3.9,3.4-5,6c-1.1,2.6-1.7,5.9-1.7,9.9V148l-1.5-2.4h22.6v7.2h-21v66.5H475.2z M519.3,219.4V111.1h9v108.3H519.3z"/>
	<path class="st2" d="M540.6,252.8l-2.2-7.8c4.6-1.1,8.4-2.4,11.5-3.9c3-1.5,5.6-3.5,7.7-6c2.1-2.4,3.9-5.5,5.4-9.1l3.8-8.8l-0.2,4
		l-32.2-75.4h10l28.1,68.1h-3.7l27.8-68.1h9.7l-34.1,80.8c-1.9,4.5-3.9,8.3-6.1,11.2c-2.2,3-4.6,5.5-7.1,7.5s-5.3,3.6-8.4,4.8
		C547.6,251.1,544.2,252.1,540.6,252.8z"/>
</g>
</svg>
