<?xml version="1.0" encoding="UTF-8" standalone="no"?>
<!DOCTYPE svg PUBLIC "-//W3C//DTD SVG 1.1//EN" "http://www.w3.org/Graphics/SVG/1.1/DTD/svg11.dtd">
<svg xmlns:xl="http://www.w3.org/1999/xlink" xmlns:dc="http://purl.org/dc/elements/1.1/" version="1.1" xmlns="http://www.w3.org/2000/svg" viewBox="0 0 1920 1080" width="1920" height="1080">
  <defs>
    <marker orient="auto" overflow="visible" markerUnits="strokeWidth" id="FilledArrow_Marker" stroke-linejoin="miter" stroke-miterlimit="10" viewBox="-1 -3 6 6" markerWidth="6" markerHeight="6" color="white">
      <g>
        <path d="M 3.7333333 0 L 0 -1.4 L 0 1.4 Z" fill="currentColor" stroke="currentColor" stroke-width="1"/>
      </g>
    </marker>
    <marker orient="auto" overflow="visible" markerUnits="strokeWidth" id="FilledArrow_Marker_2" stroke-linejoin="miter" stroke-miterlimit="10" viewBox="-5 -3 6 6" markerWidth="6" markerHeight="6" color="white">
      <g>
        <path d="M -3.7333333 0 L 0 1.4 L 0 -1.4 Z" fill="currentColor" stroke="currentColor" stroke-width="1"/>
      </g>
    </marker>
    <marker orient="auto" overflow="visible" markerUnits="strokeWidth" id="FilledArrow_Marker_3" stroke-linejoin="miter" stroke-miterlimit="10" viewBox="-9 -4 10 8" markerWidth="10" markerHeight="8" color="white">
      <g>
        <path d="M -8 0 L 0 3 L 0 -3 Z" fill="currentColor" stroke="currentColor" stroke-width="1"/>
      </g>
    </marker>
    <marker orient="auto" overflow="visible" markerUnits="strokeWidth" id="FilledArrow_Marker_4" stroke-linejoin="miter" stroke-miterlimit="10" viewBox="-1 -3 7 6" markerWidth="7" markerHeight="6" color="white">
      <g>
        <path d="M 4.8 0 L 0 -1.8 L 0 1.8 Z" fill="currentColor" stroke="currentColor" stroke-width="1"/>
      </g>
    </marker>
    <marker orient="auto" overflow="visible" markerUnits="strokeWidth" id="FilledArrow_Marker_5" stroke-linejoin="miter" stroke-miterlimit="10" viewBox="-6 -3 7 6" markerWidth="7" markerHeight="6" color="white">
      <g>
        <path d="M -4.8 0 L 0 1.8 L 0 -1.8 Z" fill="currentColor" stroke="currentColor" stroke-width="1"/>
      </g>
    </marker>
    <marker orient="auto" overflow="visible" markerUnits="strokeWidth" id="FilledArrow_Marker_6" stroke-linejoin="miter" stroke-miterlimit="10" viewBox="-1 -4 10 8" markerWidth="10" markerHeight="8" color="white">
      <g>
        <path d="M 8 0 L 0 -3 L 0 3 Z" fill="currentColor" stroke="currentColor" stroke-width="1"/>
      </g>
    </marker>
    <marker orient="auto" overflow="visible" markerUnits="strokeWidth" id="NegativeControls_Marker" stroke-linejoin="miter" stroke-miterlimit="10" viewBox="-1 -4 2 8" markerWidth="2" markerHeight="8" color="#ff6432">
      <g>
        <line x1="0" y1="-2.4" x2="0" y2="2.4" fill="none" stroke="currentColor" stroke-width="1"/>
      </g>
    </marker>
    <marker orient="auto" overflow="visible" markerUnits="strokeWidth" id="NegativeControls_Marker_2" stroke-linejoin="miter" stroke-miterlimit="10" viewBox="-1 -4 2 8" markerWidth="2" markerHeight="8" color="#ff6432">
      <g>
        <line x1="0" y1="2.4" x2="0" y2="-2.4" fill="none" stroke="currentColor" stroke-width="1"/>
      </g>
    </marker>
  </defs>
  <g id="Container-Playground" stroke="none" stroke-dasharray="none" fill-opacity="1" fill="none" stroke-opacity="1">
    <title>Container-Playground</title>
    <rect fill="white" x="0" y="0" width="1920" height="1080"/>
    <g id="Container-Playground_Background">
      <title>Background</title>
      <g id="Graphic_224">
        <title>Rectangle</title>
        <rect x="0" y="0" width="1920" height="1080" fill="#3c3c60"/>
      </g>
    </g>
    <g id="Container-Playground_items">
      <title>items</title>
      <g id="Group_190">
        <g id="Group_191">
          <g id="Graphic_198">
            <path d="M 1101.1697 368.1961 C 1101.0033 366.56502 1100.221 365.05046 1098.9728 364.0019 C 1097.7245 362.95337 1096.1267 362.42078 1094.4957 362.52064 C 1092.8313 362.42078 1091.2002 362.95337 1089.9187 364.0019 C 1088.6205 365.05046 1087.7717 366.5484 1087.5054 368.1961 L 1101.1697 368.1961 M 1107.4111 372.6732 L 1087.3722 372.6732 C 1087.6552 374.37086 1088.5706 375.88542 1089.9353 376.91732 C 1091.3001 377.94923 1092.9977 378.41525 1094.6954 378.23217 C 1096.0269 378.26545 1097.3584 377.96587 1098.5567 377.4 C 1099.755 376.81746 1100.8202 375.96864 1101.6358 374.90345 L 1105.9298 378.18224 C 1104.6316 380.06296 1102.884 381.57752 1100.8535 382.60943 C 1098.823 383.64133 1096.5761 384.14063 1094.296 384.07406 C 1090.7009 384.07406 1087.2557 382.6427 1084.7259 380.0796 C 1082.1794 377.53314 1080.7647 374.05463 1080.7647 370.44298 C 1080.7647 366.8313 1082.1961 363.36946 1084.7259 360.80635 C 1087.2724 358.2599 1090.7009 356.8119 1094.296 356.8119 C 1096.0602 356.76196 1097.8077 357.06155 1099.4388 357.7273 C 1101.0699 358.39303 1102.5512 359.375 1103.7828 360.6399 C 1105.0144 361.90482 1105.9797 363.40275 1106.5955 365.0671 C 1107.2114 366.7148 1107.4943 368.4957 1107.4111 370.2599 L 1107.4111 372.7398" fill="white"/>
          </g>
          <g id="Graphic_197">
            <path d="M 1138.0852 368.86184 L 1138.0852 383.37503 L 1131.694 383.37503 L 1131.694 369.27793 C 1131.694 365.13368 1129.1975 362.9201 1126.3515 362.9201 C 1125.4693 362.87015 1124.5872 363.0033 1123.755 363.33617 C 1122.9229 363.6524 1122.1739 364.1517 1121.5581 364.78416 C 1120.9423 365.4166 1120.4596 366.18222 1120.1434 367.0144 C 1119.8438 367.8466 1119.7107 368.74533 1119.7772 369.62744 L 1119.7772 383.39167 L 1113.3861 383.39167 L 1113.3861 357.47764 L 1119.7772 357.47764 L 1119.7772 361.57195 C 1120.5429 360.1073 1121.6913 358.89234 1123.106 358.06016 C 1124.5207 357.21134 1126.1351 356.7786 1127.7662 356.8119 C 1134.4402 356.8119 1138.0685 361.289 1138.0685 368.86184 Z" fill="white"/>
          </g>
          <g id="Graphic_196">
            <path d="M 1164.4486 370.4097 C 1164.4486 368.41246 1163.6663 366.49845 1162.2683 365.0671 C 1160.8702 363.6524 1158.9729 362.83686 1156.9923 362.80358 C 1154.9784 362.80358 1153.0644 363.60247 1151.633 365.0338 C 1150.2183 366.46516 1149.4194 368.3958 1149.4194 370.42633 C 1149.4194 372.45685 1150.2183 374.3875 1151.633 375.81885 C 1153.0477 377.2502 1154.9784 378.0491 1156.9923 378.0491 C 1158.9729 378.0158 1160.8702 377.20027 1162.2516 375.7689 C 1163.633 374.33757 1164.3987 372.4069 1164.382 370.4097 L 1164.4486 370.4097 Z M 1164.382 357.47764 L 1170.7898 357.47764 L 1170.7898 383.37503 L 1164.382 383.37503 L 1164.382 379.314 C 1163.4167 380.79528 1162.1018 382.0269 1160.5374 382.84244 C 1158.9729 383.6746 1157.2253 384.07406 1155.4777 384.04077 C 1148.6039 384.04077 1143.0782 378.4319 1143.0782 370.39305 C 1143.0782 362.3542 1148.3709 356.79525 1155.6608 356.79525 C 1157.3418 356.72867 1159.0061 357.09483 1160.5207 357.8438 C 1162.0353 358.59275 1163.3335 359.70787 1164.2988 361.07265 L 1164.382 357.461 Z" fill="white"/>
          </g>
          <g id="Graphic_195">
            <path d="M 1197.2198 349.1059 C 1197.1698 348.27374 1197.3696 347.44156 1197.8023 346.70925 C 1198.235 345.99357 1198.8675 345.41105 1199.6165 345.06153 C 1200.3654 344.712 1201.2142 344.57887 1202.0298 344.712 C 1202.8453 344.84517 1203.6109 345.21132 1204.2267 345.79385 C 1204.8425 346.35973 1205.2586 347.1087 1205.4417 347.92423 C 1205.6248 348.73976 1205.5582 349.5886 1205.2586 350.37083 C 1204.959 351.1531 1204.4264 351.81882 1203.744 352.3015 C 1203.0617 352.78415 1202.2461 353.0338 1201.414 353.0338 C 1200.8814 353.05045 1200.3488 352.96723 1199.8495 352.78415 C 1199.3502 352.60107 1198.9008 352.31813 1198.5013 351.95197 C 1198.1185 351.5858 1197.8023 351.13644 1197.586 350.65377 C 1197.3696 350.1711 1197.253 349.6385 1197.2364 349.1059 Z M 1204.6095 357.47764 L 1204.6095 383.37503 L 1198.2017 383.37503 L 1198.2017 362.5872 L 1187.3668 362.5872 L 1187.3668 383.37503 L 1180.959 383.37503 L 1180.959 362.5872 L 1176.0658 362.5872 L 1176.0658 357.47764 L 1180.959 357.47764 L 1180.959 357.0449 C 1180.959 349.62187 1184.5041 345.1281 1191.6608 345.1281 L 1193.3085 345.1281 L 1193.3085 351.16972 L 1192.3765 351.16972 C 1191.6775 351.06986 1190.9784 351.13644 1190.3127 351.36945 C 1189.647 351.60246 1189.0478 351.98526 1188.5651 352.48456 C 1188.0825 352.98387 1187.7163 353.5997 1187.5 354.26543 C 1187.3002 354.93117 1187.2503 355.64684 1187.3668 356.34587 L 1187.3668 357.52757 L 1204.6262 357.461 Z" fill="white"/>
          </g>
          <g id="Graphic_194">
            <path d="M 1075.006 346.97554 C 1072.393 356.14615 1068.2321 364.78416 1062.7231 372.54007 C 1057.2307 364.78416 1053.1031 356.1295 1050.5234 346.97554 L 1043.3999 346.97554 C 1046.3625 358.2266 1051.472 368.79526 1058.4457 378.08237 C 1059.7938 379.91317 1061.2252 381.69403 1062.7231 383.39167 C 1064.2044 381.69403 1065.6357 379.91317 1067.0005 378.08237 C 1073.9741 368.79526 1079.0837 358.2266 1082.0463 346.97554 L 1075.006 346.97554 Z" fill="white"/>
          </g>
          <g id="Graphic_193">
            <path d="M 981.7854 350.98664 C 984.7813 359.2918 989.2084 367.0144 994.8506 373.7717 L 996.7646 376.01857 L 998.6953 373.7717 C 1004.3541 366.99776 1008.7979 359.2918 1011.8104 350.98664 L 1005.3028 350.98664 C 1003.1724 356.3625 1000.3097 361.4055 996.8146 365.99914 C 993.3194 361.4055 990.4734 356.3625 988.3596 350.98664 L 981.7688 350.98664 Z" fill="#ff6333"/>
          </g>
          <g id="Graphic_192">
            <path d="M 1008.5982 340.25154 C 1008.4484 340.63434 1006.9671 344.99496 1006.2015 346.7758 L 1018.6842 346.7758 C 1014.307 358.77583 1007.8825 369.92703 999.7105 379.71344 L 996.9311 383.0255 L 994.1516 379.71344 C 985.963 369.89374 979.5385 358.7259 975.1779 346.70925 L 987.0614 346.70925 C 986.2792 344.94503 984.8312 340.56777 984.6648 340.18497 L 964.8922 340.18497 C 971.3166 357.8105 980.7535 374.1878 992.7702 388.5678 L 996.8478 393.42775 L 1000.9422 388.5678 C 1012.9422 374.1878 1022.3624 357.8105 1028.7869 340.18497 Z" fill="#ff6333"/>
          </g>
        </g>
        <g id="Graphic_2286">
          <path d="M 478 603.0188 L 1396.5 603.0188 C 1399.2614 603.0188 1401.5 605.2574 1401.5 608.0188 L 1401.5 968.0188 C 1401.5 970.7802 1399.2614 973.0188 1396.5 973.0188 L 478 973.0188 C 475.2386 973.0188 473 970.7802 473 968.0188 L 473 608.0188 C 473 605.2574 475.2386 603.0188 478 603.0188 Z" stroke="#00c1d5" stroke-linecap="round" stroke-linejoin="round" stroke-width="1"/>
        </g>
      </g>
      <g id="Group_964">
        <g id="Group_977">
          <g id="Graphic_1021">
            <path d="M 1004.0212 772.3561 L 1275.6806 772.3561 C 1278.442 772.3561 1280.6806 774.5947 1280.6806 777.3561 L 1280.6806 902.3784 C 1280.6806 905.1399 1278.442 907.3784 1275.6806 907.3784 L 1004.0212 907.3784 C 1001.2597 907.3784 999.0212 905.1399 999.0212 902.3784 L 999.0212 777.3561 C 999.0212 774.5947 1001.2597 772.3561 1004.0212 772.3561 Z" stroke="#00c1d5" stroke-linecap="round" stroke-linejoin="round" stroke-width="1"/>
          </g>
          <g id="Graphic_1020">
            <path d="M 1013.5988 782.7626 L 1285.2582 782.7626 C 1288.0197 782.7626 1290.2582 785.0012 1290.2582 787.7626 L 1290.2582 912.7849 C 1290.2582 915.5464 1288.0197 917.7849 1285.2582 917.7849 L 1013.5988 917.7849 C 1010.8374 917.7849 1008.5988 915.5464 1008.5988 912.7849 L 1008.5988 787.7626 C 1008.5988 785.0012 1010.8374 782.7626 1013.5988 782.7626 Z" fill="#3e3d63"/>
            <path d="M 1013.5988 782.7626 L 1285.2582 782.7626 C 1288.0197 782.7626 1290.2582 785.0012 1290.2582 787.7626 L 1290.2582 912.7849 C 1290.2582 915.5464 1288.0197 917.7849 1285.2582 917.7849 L 1013.5988 917.7849 C 1010.8374 917.7849 1008.5988 915.5464 1008.5988 912.7849 L 1008.5988 787.7626 C 1008.5988 785.0012 1010.8374 782.7626 1013.5988 782.7626 Z" stroke="#00c1d5" stroke-linecap="round" stroke-linejoin="round" stroke-width="1"/>
          </g>
          <g id="Group_978">
            <g id="Group_999">
              <g id="Graphic_1019">
                <path d="M 1022.2567 795.4228 L 1293.9161 795.4228 C 1296.6775 795.4228 1298.9161 797.6614 1298.9161 800.4228 L 1298.9161 925.4451 C 1298.9161 928.2065 1296.6775 930.4451 1293.9161 930.4451 L 1022.2567 930.4451 C 1019.4953 930.4451 1017.2567 928.2065 1017.2567 925.4451 L 1017.2567 800.4228 C 1017.2567 797.6614 1019.4953 795.4228 1022.2567 795.4228 Z" fill="#3e3d63"/>
                <path d="M 1022.2567 795.4228 L 1293.9161 795.4228 C 1296.6775 795.4228 1298.9161 797.6614 1298.9161 800.4228 L 1298.9161 925.4451 C 1298.9161 928.2065 1296.6775 930.4451 1293.9161 930.4451 L 1022.2567 930.4451 C 1019.4953 930.4451 1017.2567 928.2065 1017.2567 925.4451 L 1017.2567 800.4228 C 1017.2567 797.6614 1019.4953 795.4228 1022.2567 795.4228 Z" stroke="#00c1d5" stroke-linecap="round" stroke-linejoin="round" stroke-width="1"/>
              </g>
              <g id="Group_1000">
                <g id="Graphic_1018">
                  <path d="M 1037.9932 846.4346 C 1035.0451 849.344 1030.3356 848.7892 1027.1627 845.658 C 1023.9897 842.5267 1023.8023 837.6326 1026.7504 834.7232" stroke="#ff6333" stroke-linecap="round" stroke-linejoin="round" stroke-width="1.02"/>
                </g>
                <g id="Graphic_1017">
                  <path d="M 1030.6105 835.0807 C 1030.523 835.0807 1030.4356 835.1177 1030.3731 835.1794 C 1028.162 837.46 1027.9746 840.8995 1029.9734 842.8842 C 1031.9846 844.869 1035.5948 844.6841 1037.9058 842.4897 C 1037.9683 842.4281 1038.0057 842.3418 1038.0057 842.2555 L 1038.0057 835.4013 C 1038.0057 835.2163 1037.8558 835.0807 1037.681 835.0807 L 1030.6105 835.0807 Z" fill="#ff6333"/>
                </g>
                <g id="Group_1011">
                  <g id="Graphic_1016">
                    <path d="M 1068.4488 826.5252 L 1063.4645 815.4672 L 1065.6631 815.4672 L 1069.6855 824.75 L 1069.011 824.75 L 1073.0334 815.4672 L 1075.1695 815.4672 L 1070.1852 826.5129 L 1068.4363 826.5129 Z" fill="white"/>
                  </g>
                  <g id="Graphic_1015">
                    <path d="M 1078.8172 826.6608 C 1077.9178 826.6608 1077.1433 826.5006 1076.5062 826.1677 C 1075.8691 825.8472 1075.3694 825.3664 1075.0196 824.75 C 1074.6823 824.1336 1074.495 823.394 1074.495 822.568 C 1074.495 821.7421 1074.6573 821.027 1074.9821 820.3983 C 1075.3069 819.7819 1075.7691 819.3011 1076.3563 818.956 C 1076.9434 818.5985 1077.6304 818.4382 1078.405 818.4382 C 1079.1795 818.4382 1079.8165 818.5985 1080.3412 818.919 C 1080.8659 819.2395 1081.2531 819.6956 1081.528 820.2874 C 1081.8028 820.8668 1081.9402 821.5571 1081.9402 822.3461 L 1081.9402 822.8639 L 1076.0939 822.8639 L 1076.0939 821.8283 L 1080.5286 821.8283 L 1080.2538 822.0502 C 1080.2538 821.3229 1080.0914 820.7682 1079.7791 820.3737 C 1079.4668 819.9915 1079.017 819.7943 1078.4299 819.7943 C 1077.9927 819.7943 1077.618 819.9052 1077.3056 820.1148 C 1076.9933 820.3244 1076.7685 820.63255 1076.6186 821.0147 C 1076.4562 821.3969 1076.3687 821.8653 1076.3687 822.4324 L 1076.3687 822.642 C 1076.3687 823.4926 1076.5811 824.1336 1077.0058 824.5528 C 1077.4306 824.9719 1078.0552 825.1815 1078.8297 825.1815 C 1079.2919 825.1815 1079.7166 825.1199 1080.1039 825.0089 C 1080.4911 824.898 1080.8909 824.6884 1081.2406 824.4172 L 1081.8278 825.7363 C 1081.453 826.0445 1080.9908 826.2664 1080.4536 826.4389 C 1079.9664 826.5869 1079.3918 826.6732 1078.8047 826.6732 Z" fill="white"/>
                  </g>
                  <g id="Graphic_1014">
                    <path d="M 1083.3768 826.5252 L 1083.3768 820.5709 C 1083.3768 820.2504 1083.3643 819.9052 1083.3393 819.5847 C 1083.3268 819.2518 1083.2893 818.919 1083.2394 818.5985 L 1085.1631 818.5985 L 1085.3255 820.1764 L 1085.1257 820.1764 C 1085.388 819.634 1085.7627 819.1902 1086.25 818.9067 C 1086.7496 818.5985 1087.3243 818.4505 1087.9738 818.4505 C 1088.9232 818.4505 1089.6228 818.7094 1090.11 819.2395 C 1090.5847 819.7696 1090.822 820.5709 1090.822 821.6804 L 1090.822 826.5252 L 1088.8358 826.5252 L 1088.8358 821.7544 C 1088.8358 821.1133 1088.7109 820.6572 1088.461 820.386 C 1088.2112 820.1148 1087.8364 819.96685 1087.3367 819.96685 C 1086.7121 819.96685 1086.225 820.1641 1085.8752 820.5339 C 1085.5129 820.9038 1085.338 821.4215 1085.338 822.0502 L 1085.338 826.5252 L 1083.3643 826.5252 Z" fill="white"/>
                  </g>
                  <g id="Graphic_1013">
                    <path d="M 1095.7938 826.6608 C 1095.0943 826.6608 1094.4697 826.5006 1093.9575 826.1677 C 1093.4204 825.8472 1093.0081 825.3664 1092.7208 824.75 C 1092.421 824.1336 1092.2836 823.394 1092.2836 822.5434 C 1092.2836 821.6927 1092.4335 820.9531 1092.7208 820.3367 C 1093.0206 819.7203 1093.4329 819.2642 1093.9575 818.919 C 1094.4822 818.5985 1095.0943 818.4259 1095.7938 818.4259 C 1096.4934 818.4259 1097.068 818.5861 1097.5802 818.919 C 1098.1049 819.2395 1098.4297 819.6956 1098.6046 820.2381 L 1098.4297 820.2381 L 1098.6046 818.5861 L 1100.5158 818.5861 C 1100.4784 818.9067 1100.4534 819.2518 1100.4284 819.5724 C 1100.3909 819.9052 1100.3909 820.2381 1100.3909 820.5586 L 1100.3909 826.5129 L 1098.4047 826.5129 L 1098.4047 824.8856 L 1098.5796 824.8856 C 1098.4172 825.4281 1098.0549 825.8719 1097.5552 826.1924 C 1097.018 826.5129 1096.431 826.6732 1095.7814 826.6732 Z M 1096.3435 825.1692 C 1096.9681 825.1692 1097.4678 824.9596 1097.855 824.5281 C 1098.2298 824.0967 1098.4297 823.431 1098.4297 822.568 C 1098.4297 821.7051 1098.2298 821.0394 1097.855 820.6079 C 1097.4803 820.1764 1096.9681 819.96685 1096.3435 819.96685 C 1095.7189 819.96685 1095.2192 820.1764 1094.832 820.6079 C 1094.4572 821.0394 1094.2573 821.6804 1094.2573 822.568 C 1094.2573 823.4556 1094.4572 824.0967 1094.832 824.5281 C 1095.2067 824.9473 1095.7189 825.1692 1096.3435 825.1692 Z" fill="white"/>
                  </g>
                  <g id="Graphic_1012">
                    <path d="M 1103.0267 826.5252 L 1103.0267 820.0778 L 1101.4777 820.0778 L 1101.4777 818.5985 L 1103.5764 818.5985 L 1103.0267 819.0916 L 1103.0267 817.8835 C 1103.0267 816.8972 1103.2766 816.1576 1103.7762 815.6644 C 1104.2759 815.1713 1105.013 814.9125 1105.9748 814.9125 C 1106.1997 814.9125 1106.4495 814.9248 1106.7119 814.9618 C 1106.9742 814.9987 1107.199 815.0604 1107.3864 815.1344 L 1107.3864 816.6753 C 1107.2615 816.626 1107.0741 816.5767 1106.8993 816.55205 C 1106.6994 816.5151 1106.5245 816.5027 1106.3496 816.5027 C 1105.9374 816.5027 1105.6126 816.6137 1105.3752 816.8602 C 1105.1379 817.1068 1105.013 817.4766 1105.013 818.0067 L 1105.013 818.956 L 1104.7132 818.6231 L 1110.2846 818.6231 L 1110.2846 826.5376 L 1108.2984 826.5376 L 1108.2984 820.0901 L 1105.0005 820.0901 L 1105.0005 826.5376 L 1103.0267 826.5376 Z M 1108.1984 817.1191 L 1108.1984 815.196 L 1110.4095 815.196 L 1110.4095 817.1068 L 1108.1984 817.1068 Z" fill="white"/>
                  </g>
                </g>
                <g id="Line_1010">
                  <path d="M 1039.08 817.6369 L 1039.08 831.8755 L 1024.6393 831.8755" stroke="white" stroke-linecap="round" stroke-linejoin="round" stroke-width="1.68"/>
                </g>
                <g id="Line_1009">
                  <path d="M 1041.516 848.2838 L 1041.516 834.0329 L 1055.9568 834.0452" stroke="white" stroke-linecap="round" stroke-linejoin="round" stroke-width="1.68"/>
                </g>
                <g id="Line_1008">
                  <path d="M 1048.2617 830.4455 L 1042.9651 830.43315 L 1042.9651 825.2062" stroke="#ff6333" stroke-linecap="round" stroke-linejoin="round" stroke-width=".62"/>
                </g>
                <g id="Group_1001">
                  <g id="Graphic_1007">
                    <path d="M 1064.8011 850.5028 L 1064.8011 833.1329 L 1075.4818 833.1329 L 1075.4818 834.4397 L 1066.3501 834.4397 L 1066.3501 841.072 L 1074.9571 841.072 L 1074.9571 842.3788 L 1066.3501 842.3788 L 1066.3501 850.5028 Z" fill="white"/>
                  </g>
                  <g id="Graphic_1006">
                    <path d="M 1076.731 835.13 L 1076.731 833.2562 L 1078.7797 833.2562 L 1078.7797 835.13 Z M 1076.9809 850.5028 L 1076.9809 838.1627 L 1078.5049 838.1627 L 1078.5049 850.5028 Z" fill="white"/>
                  </g>
                  <g id="Graphic_1005">
                    <path d="M 1081.1532 850.5028 L 1081.1532 841.0474 C 1081.1532 840.5666 1081.1532 840.0858 1081.1157 839.605 C 1081.0782 839.1242 1081.0408 838.6435 1080.9783 838.1627 L 1082.4773 838.1627 L 1082.6772 840.9981 L 1082.3774 841.0227 C 1082.5398 840.3324 1082.8396 839.7653 1083.2768 839.3092 C 1083.714 838.853 1084.2137 838.5202 1084.7759 838.286 C 1085.338 838.0517 1085.9251 837.9408 1086.5248 837.9408 C 1086.7371 837.9408 1086.9495 837.9408 1087.1369 837.9778 C 1087.3243 838.0024 1087.5116 838.0394 1087.674 838.0887 L 1087.624 839.4448 C 1087.4242 839.3831 1087.2243 839.3338 1087.0244 839.3215 C 1086.8246 839.3092 1086.6122 839.2968 1086.3749 839.2968 C 1085.6253 839.2968 1084.9758 839.4818 1084.4136 839.8393 C 1083.8515 840.1968 1083.4267 840.6652 1083.1269 841.22 C 1082.8271 841.7747 1082.6772 842.3418 1082.6772 842.9212 L 1082.6772 850.5028 L 1081.1532 850.5028 Z" fill="white"/>
                  </g>
                  <g id="Graphic_1004">
                    <path d="M 1093.6077 850.7 C 1091.709 850.7 1090.2099 850.1453 1089.0981 849.0235 C 1087.9863 847.9016 1087.4367 846.3607 1087.4367 844.3636 C 1087.4367 843.0445 1087.6865 841.9227 1088.1737 840.9611 C 1088.6609 840.0118 1089.348 839.2722 1090.2349 838.7298 C 1091.1218 838.1997 1092.1462 837.9285 1093.3079 837.9285 C 1094.4697 837.9285 1095.3691 838.1627 1096.1311 838.6311 C 1096.8931 839.0996 1097.4928 839.7653 1097.905 840.6282 C 1098.3172 841.4912 1098.5296 842.5144 1098.5296 843.6979 L 1098.5296 844.3882 L 1088.5485 844.3882 L 1088.5485 843.3034 L 1097.5802 843.3034 L 1097.1555 843.6239 C 1097.1555 842.2309 1096.8307 841.1337 1096.1811 840.3324 C 1095.5315 839.5311 1094.5696 839.1366 1093.283 839.1366 C 1091.9213 839.1366 1090.847 839.605 1090.085 840.5296 C 1089.323 841.4542 1088.9357 842.687 1088.9357 844.2156 L 1088.9357 844.3882 C 1088.9357 846.0278 1089.348 847.2729 1090.1724 848.1359 C 1090.9969 848.9988 1092.1462 849.418 1093.6327 849.418 C 1094.3947 849.418 1095.1193 849.307 1095.7814 849.0728 C 1096.4434 848.8386 1097.093 848.4441 1097.7051 847.8893 L 1098.3297 848.9988 C 1097.7926 849.5412 1097.1055 849.9604 1096.256 850.2562 C 1095.4066 850.5521 1094.5197 850.7 1093.6077 850.7 Z" fill="white"/>
                  </g>
                  <g id="Graphic_1003">
                    <path d="M 1101.3903 850.5028 L 1101.3903 839.3708 L 1098.8919 839.3708 L 1098.8919 838.1627 L 1101.765 838.1627 L 1101.3903 838.5572 L 1101.3903 836.4121 C 1101.3903 835.0931 1101.7276 834.0822 1102.3896 833.3548 C 1103.0517 832.6275 1104.0011 832.27 1105.2378 832.27 C 1105.5501 832.27 1105.8749 832.2946 1106.2122 832.3563 C 1106.5495 832.4179 1106.8243 832.4796 1107.0367 832.5659 L 1107.0367 833.8973 C 1106.8368 833.811 1106.5994 833.737 1106.3121 833.6754 C 1106.0248 833.6137 1105.725 833.5767 1105.4127 833.5767 C 1104.863 833.5767 1104.4008 833.6877 1104.0261 833.9219 C 1103.6513 834.1561 1103.364 834.489 1103.1766 834.9205 C 1102.9893 835.3519 1102.8893 835.9067 1102.8893 836.5847 L 1102.8893 838.5572 L 1102.6395 838.1627 L 1106.487 838.1627 L 1106.487 839.3708 L 1102.9143 839.3708 L 1102.9143 850.5028 L 1101.3903 850.5028 Z M 1108.873 850.5028 L 1108.873 832.3686 L 1110.397 832.3686 L 1110.397 850.5028 Z" fill="white"/>
                  </g>
                  <g id="Graphic_1002">
                    <path d="M 1112.4957 856.0996 L 1112.1209 854.7929 C 1112.9079 854.608 1113.5575 854.3984 1114.0697 854.1395 C 1114.5818 853.8806 1115.0191 853.5478 1115.3688 853.141 C 1115.7186 852.7341 1116.0309 852.2164 1116.2933 851.6123 L 1116.9428 850.133 L 1116.9179 850.7987 L 1111.4464 838.1627 L 1113.1453 838.1627 L 1117.9172 849.5659 L 1117.2926 849.5659 L 1122.0146 838.1627 L 1123.6636 838.1627 L 1117.8673 851.6863 C 1117.555 852.4383 1117.2052 853.067 1116.8304 853.5724 C 1116.4557 854.0779 1116.0559 854.497 1115.6187 854.8299 C 1115.1815 855.1627 1114.7068 855.4339 1114.1946 855.6312 C 1113.6824 855.8284 1113.1078 855.9887 1112.4957 856.0996 Z" fill="white"/>
                  </g>
                </g>
              </g>
            </g>
            <g id="Graphic_998">
              <text transform="translate(1041.4002 871.8208)" fill="white">
                <tspan font-family="Helvetica Neue" font-size="12" fill="white" x="0" y="11">- Ephemeral SubCA</tspan>
                <tspan font-family="Helvetica Neue" font-size="12" fill="white" x="0" y="25.323914">- Private Key - In memory</tspan>
                <tspan font-family="Helvetica Neue" font-size="12" fill="white" x="0" y="39.647827">- Rooted to enterprise CA </tspan>
              </text>
            </g>
            <g id="Group_979">
              <g id="Group_981">
                <g id="Graphic_997">
                  <rect x="1231.2376" y="854.5454" width="64.04593" height="71.64003" fill="#3d3d61"/>
                </g>
                <g id="Group_982">
                  <g id="Graphic_996">
                    <path d="M 1253.2912 864.2326 C 1253.2912 860.7645 1256.1665 857.9597 1259.7035 857.9597 C 1263.2404 857.9597 1266.1157 860.7725 1266.1157 864.2326 C 1266.1157 866.6938 1264.6617 868.8274 1262.5624 869.8342 L 1262.5624 886.5034 L 1259.7198 889.2842 L 1256.8853 886.5114 L 1258.0861 884.8173 L 1256.8853 882.3321 L 1258.3067 880.2385 L 1256.8853 878.1448 L 1258.225 875.1882 L 1257.3754 873.9576 L 1257.3754 869.8103 C 1254.7534 868.8194 1253.2994 866.6938 1253.2994 864.2246 Z" stroke="#f26b47" stroke-linecap="butt" stroke-linejoin="round" stroke-width=".68"/>
                  </g>
                  <g id="Graphic_995">
                    <ellipse cx="1259.7035" cy="861.4997" rx="1.20893730865963" ry="1.1826645402761" stroke="#f26b47" stroke-linecap="butt" stroke-linejoin="round" stroke-width=".68"/>
                  </g>
                  <g id="Graphic_994">
                    <path d="M 1245.6782 869.131 L 1249.06 869.131 L 1251.3798 872.2715 L 1252.5152 872.2715 M 1248.0879 874.8845 L 1249.6726 874.8845" stroke="#32c1d4" stroke-linecap="butt" stroke-linejoin="round" stroke-width=".68"/>
                  </g>
                  <g id="Graphic_993">
                    <ellipse cx="1243.9791" cy="869.131" rx="1.70721552371512" ry="1.56623141820329" stroke="#32c1d4" stroke-linecap="butt" stroke-linejoin="round" stroke-width=".68"/>
                  </g>
                  <g id="Line_992">
                    <path d="M 1246.83 880.638 L 1249.06 880.638 L 1251.3144 877.4976 L 1252.5234 877.4976" stroke="#32c1d4" stroke-linecap="butt" stroke-linejoin="round" stroke-width=".68"/>
                  </g>
                  <g id="Graphic_991">
                    <ellipse cx="1245.1227" cy="880.638" rx="1.70721552371515" ry="1.56623141820332" stroke="#32c1d4" stroke-linecap="butt" stroke-linejoin="round" stroke-width=".68"/>
                  </g>
                  <g id="Graphic_990">
                    <ellipse cx="1246.3888" cy="874.8845" rx="1.70721552371512" ry="1.56623141820329" stroke="#32c1d4" stroke-linecap="butt" stroke-linejoin="round" stroke-width=".68"/>
                  </g>
                  <g id="Graphic_989">
                    <path d="M 1254.2224 874.8845 L 1253.087 874.8845 M 1251.9516 874.8845 L 1250.8162 874.8845 M 1253.6588 872.2715 L 1254.7942 872.2715 M 1253.6588 877.4976 L 1254.7942 877.4976" stroke="#32c1d4" stroke-linecap="butt" stroke-linejoin="round" stroke-width=".68"/>
                  </g>
                  <g id="Graphic_988">
                    <path d="M 1274.4966 869.131 L 1270.5349 869.131 L 1268.2069 872.2715 L 1267.0714 872.2715 M 1271.3272 874.8845 L 1269.9222 874.8845" stroke="#32c1d4" stroke-linecap="butt" stroke-linejoin="round" stroke-width=".68"/>
                  </g>
                  <g id="Graphic_987">
                    <ellipse cx="1276.1956" cy="869.131" rx="1.70721552371506" ry="1.56623141820329" stroke="#32c1d4" stroke-linecap="butt" stroke-linejoin="round" stroke-width=".68"/>
                  </g>
                  <g id="Line_986">
                    <path d="M 1272.7649 880.638 L 1270.5349 880.638 L 1268.2722 877.4976 L 1267.0633 877.4976" stroke="#32c1d4" stroke-linecap="butt" stroke-linejoin="round" stroke-width=".68"/>
                  </g>
                  <g id="Graphic_985">
                    <ellipse cx="1274.4639" cy="880.638" rx="1.707215523715" ry="1.56623141820332" stroke="#32c1d4" stroke-linecap="butt" stroke-linejoin="round" stroke-width=".68"/>
                  </g>
                  <g id="Graphic_984">
                    <ellipse cx="1273.0263" cy="874.8845" rx="1.707215523715" ry="1.56623141820329" stroke="#32c1d4" stroke-linecap="butt" stroke-linejoin="round" stroke-width=".68"/>
                  </g>
                  <g id="Graphic_983">
                    <path d="M 1265.3642 874.8845 L 1266.4996 874.8845 M 1267.635 874.8845 L 1268.7705 874.8845 M 1265.9278 872.2715 L 1264.7924 872.2715 M 1265.9278 877.4976 L 1264.7924 877.4976" stroke="#32c1d4" stroke-linecap="butt" stroke-linejoin="round" stroke-width=".68"/>
                  </g>
                </g>
              </g>
              <g id="Graphic_980">
                <text transform="translate(1243.638 891.0165)" fill="white">
                  <tspan font-family="Helvetica Neue" font-size="10" fill="white" x="2.145" y="10">Secure</tspan>
                  <tspan font-family="Helvetica Neue" font-size="10" fill="white" x="0" y="22.29007">Memory</tspan>
                </text>
              </g>
            </g>
          </g>
        </g>
        <g id="Group_965">
          <g id="Graphic_976">
            <path d="M 1241.6553 826.3491 L 1258.4295 826.3491 M 1241.7688 832.6441 L 1247.1466 832.6441" stroke="#797891" stroke-linecap="round" stroke-linejoin="round" stroke-width="1.0615439"/>
          </g>
          <g id="Graphic_975"/>
          <g id="Line_974">
            <path d="M 1264.9866 837.2379 L 1234.3834 837.2379 L 1234.3834 804.9965 L 1275.5236 804.9965 L 1275.5236 810.5807" stroke="#19bfd3" stroke-linecap="round" stroke-linejoin="round" stroke-width="1.0615439"/>
          </g>
          <g id="Graphic_973">
            <path d="M 1275.5236 813.2227 L 1278.1377 815.8853 L 1283.3444 815.8853 L 1283.3444 821.1992 L 1285.9575 823.8505 L 1283.3444 826.5038 L 1283.3444 831.8177 L 1278.1377 831.8177 L 1275.5236 834.4804 L 1272.9198 831.8177 L 1267.7028 831.8177 L 1267.7028 826.5038 L 1265.0908 823.8505 L 1267.7028 821.1992 L 1267.7028 815.8853 L 1272.9198 815.8853 Z" stroke="#f2653a" stroke-linecap="round" stroke-linejoin="round" stroke-width="1.0615439"/>
          </g>
          <g id="Line_972">
            <path d="M 1281.4297 831.8177 L 1286.042 846.1553 L 1282.0332 844.2437 L 1279.9194 848.2031 L 1275.5236 834.566" stroke="#f2653a" stroke-linecap="round" stroke-linejoin="round" stroke-width="1.0615439"/>
          </g>
          <g id="Graphic_971"/>
          <g id="Line_970">
            <path d="M 1271.882 823.8515 L 1274.9108 826.9361 L 1279.9678 820.7669" stroke="#f2653a" stroke-linecap="butt" stroke-linejoin="round" stroke-width="1.0615439"/>
          </g>
          <g id="Graphic_969"/>
          <g id="Line_968">
            <path d="M 1269.6186 831.8177 L 1265.0051 846.1553 L 1269.014 844.2437 L 1271.1371 848.2031 L 1275.5246 834.566" stroke="#f2653a" stroke-linecap="round" stroke-linejoin="round" stroke-width="1.0615439"/>
          </g>
          <g id="Graphic_967"/>
          <g id="Graphic_966">
            <title>Text</title>
            <text transform="translate(1243.9496 808.3365)" fill="#f2653a">
              <tspan font-family="Helvetica" font-size="12.733" fill="#f2653a" x="0" y="13">CA</tspan>
            </text>
          </g>
        </g>
      </g>
      <g id="Graphic_1024">
        <text transform="translate(1078.645 940.281)" fill="white">
          <tspan font-family="Helvetica Neue" font-size="20" fill="white" x="4405365e-19" y="19">Ephemeral Issuers</tspan>
        </text>
      </g>
      <g id="Graphic_858">
        <text transform="translate(164.01036 107.3678)" fill="white">
          <tspan font-family="Helvetica" font-size="25" fill="white" x="93.47176" y="24">Platform Engineering </tspan>
          <tspan font-family="Helvetica" font-size="25" fill="white" x="180.88509" y="54">Teams</tspan>
        </text>
      </g>
      <g id="Group_1084">
        <g id="Graphic_1083">
          <rect x="339" y="401.19146" width="90.6776" height="88.71835" fill="#3e3d63"/>
        </g>
        <g id="Group_1072">
          <g id="Graphic_1082">
            <circle cx="385.0367" cy="446.415" r="5.18614430966798" stroke="white" stroke-linecap="butt" stroke-linejoin="round" stroke-width="1.3829689"/>
          </g>
          <g id="Graphic_1081">
            <path d="M 405.48735 441.79934 L 403.32646 436.16374 L 397.95017 437.75415 C 396.9648 436.28475 395.7374 435.0055 394.35445 433.98556 L 396.22146 428.6957 L 390.70687 426.24094 L 388.02737 431.16776 C 386.33323 430.8393 384.56994 430.77016 382.82394 431.02947 L 380.40375 425.98163 L 374.76815 428.1425 L 376.35857 433.5188 C 374.88916 434.5042 373.6099 435.73156 372.5727 437.11453 L 367.28283 435.2475 L 364.82806 440.7621 L 369.7549 443.4416 C 369.42643 445.13575 369.3573 446.89903 369.6166 448.64503 L 364.56876 451.06523 L 366.72964 456.7008 L 372.10594 455.1104 C 373.0913 456.5798 374.3187 457.85906 375.70166 458.879 L 373.83465 464.16886 L 379.34924 466.62363 L 382.02874 461.6968 C 383.72287 462.02526 385.48616 462.0944 387.23216 461.8351 L 389.65235 466.88293 L 395.28795 464.72205 L 393.69754 459.34575 C 395.16694 458.3604 396.4462 457.133 397.4834 455.75004 L 402.77327 457.61704 L 405.22804 452.10245 L 400.3012 449.42295 C 400.62967 447.7288 400.6988 445.96553 400.4395 444.21953 Z" stroke="white" stroke-linecap="butt" stroke-linejoin="round" stroke-width="1.3829689"/>
          </g>
          <g id="Graphic_1080">
            <circle cx="404.0525" cy="413.5695" r="6.91485907955728" stroke="white" stroke-linecap="butt" stroke-linejoin="round" stroke-width="1.3829689"/>
          </g>
          <g id="Line_1079">
            <path d="M 397.13767 413.5695 L 385.0367 413.5695 L 385.0367 422.21304" stroke="white" stroke-linecap="butt" stroke-linejoin="round" stroke-width="1.3829689"/>
          </g>
          <g id="Graphic_1078">
            <path d="M 405.76934 468.8883 L 414.4115 460.2461 L 423.05367 468.8883 L 414.4115 477.53044 Z" stroke="white" stroke-linecap="butt" stroke-linejoin="round" stroke-width="1.3829557"/>
          </g>
          <g id="Graphic_1077">
            <path d="M 353.9199 475.8031 L 367.7496 484.44664 L 367.7496 467.15953 Z" stroke="white" stroke-linecap="butt" stroke-linejoin="round" stroke-width="1.3829689"/>
          </g>
          <g id="Graphic_1076">
            <rect x="348.73376" y="417.0269" width="13.829689" height="13.829689" stroke="white" stroke-linecap="butt" stroke-linejoin="round" stroke-width="1.3829689"/>
          </g>
          <g id="Line_1075">
            <path d="M 407.50994 446.415 L 414.4248 446.415 L 414.4248 460.2447" stroke="white" stroke-linecap="butt" stroke-linejoin="round" stroke-width="1.3829689"/>
          </g>
          <g id="Line_1074">
            <path d="M 362.56345 446.415 L 355.6486 446.415 L 355.6486 430.8566" stroke="white" stroke-linecap="butt" stroke-linejoin="round" stroke-width="1.3829689"/>
          </g>
          <g id="Line_1073">
            <path d="M 385.0367 470.61695 L 385.0367 477.5318 L 367.7496 477.5318" stroke="white" stroke-linecap="butt" stroke-linejoin="round" stroke-width="1.3829689"/>
          </g>
        </g>
      </g>
      <g id="Line_1124">
        <line x1="383.71185" y1="189.9" x2="383.71185" y2="388.6993" marker-end="url(#FilledArrow_Marker)" marker-start="url(#FilledArrow_Marker_2)" stroke="white" stroke-linecap="round" stroke-linejoin="round" stroke-dasharray="3.0,12.0" stroke-width="3"/>
      </g>
      <g id="Graphic_1197">
        <rect x="549.28497" y="536.2685" width="104.06784" height="27.800255" fill="#3d3d61"/>
        <text transform="translate(510.6069 527.632)" fill="white">
          <tspan font-family="Helvetica Neue" font-size="20" fill="white" x="1.622" y="20"> Container Runtime</tspan>
          <tspan font-family="Helvetica Neue" font-size="17" fill="white" x="2.363" y="40.58014">e.g. Docker, Podman … </tspan>
        </text>
      </g>
      <g id="Graphic_1237">
        <text transform="translate(1187.665 483.1462)" fill="white">
          <tspan font-family="Helvetica Neue" font-size="18" fill="white" x="0" y="18">Firefly outbound only:</tspan>
        </text>
      </g>
      <g id="Line_1243">
        <line x1="807.3685" y1="753.58" x2="807.3685" y2="741.69405" marker-start="url(#FilledArrow_Marker_3)" stroke="white" stroke-linecap="round" stroke-linejoin="round" stroke-width=".5"/>
      </g>
      <g id="Group_2290">
        <g id="Graphic_2293">
          <path d="M 857.5202 628.6693 L 1006.5995 628.6693 C 1009.361 628.6693 1011.5995 630.90785 1011.5995 633.6693 L 1011.5995 699.92895 C 1011.5995 702.6904 1009.361 704.92895 1006.5995 704.92895 L 857.5202 704.92895 C 854.7588 704.92895 852.5202 702.6904 852.5202 699.92895 L 852.5202 633.6693 C 852.5202 630.90785 854.7588 628.6693 857.5202 628.6693 Z" fill="#3e3d63"/>
          <path d="M 857.5202 628.6693 L 1006.5995 628.6693 C 1009.361 628.6693 1011.5995 630.90785 1011.5995 633.6693 L 1011.5995 699.92895 C 1011.5995 702.6904 1009.361 704.92895 1006.5995 704.92895 L 857.5202 704.92895 C 854.7588 704.92895 852.5202 702.6904 852.5202 699.92895 L 852.5202 633.6693 C 852.5202 630.90785 854.7588 628.6693 857.5202 628.6693 Z" stroke="#00c1d5" stroke-linecap="round" stroke-linejoin="round" stroke-width="1"/>
        </g>
        <g id="Graphic_2291">
          <text transform="translate(827.3461 648.1994)" fill="white">
            <tspan font-family="Helvetica" font-size="17" fill="white" x="63.16409" y="16">JWT-This</tspan>
            <tspan font-family="Helvetica Neue" font-size="14" fill="white" x="47.33652" y="33">Development IDP</tspan>
          </text>
        </g>
      </g>
      <g id="Line_2303">
        <path d="M 1023.0438 668.124 L 1053.7115 668.124 C 1063.6526 668.124 1071.7115 676.1829 1071.7115 686.124 L 1071.7115 796.3333" marker-start="url(#FilledArrow_Marker_3)" stroke="white" stroke-linecap="round" stroke-linejoin="round" stroke-dasharray="8.0,5.0" stroke-width="1"/>
      </g>
      <g id="Line_2304">
        <path d="M 479.58766 535.8716 L 478.86266 476.63287 C 478.66166 460.20875 465.29026 447 448.8649 447 L 441.2051 447" marker-end="url(#FilledArrow_Marker_4)" marker-start="url(#FilledArrow_Marker_5)" stroke="white" stroke-linecap="round" stroke-linejoin="round" stroke-width="2"/>
      </g>
      <g id="Graphic_2307">
        <text transform="translate(57.829265 544.84495)" fill="white">
          <tspan font-family="Helvetica Neue" font-size="21" fill="white" x="2.919" y="20">Docker Compose </tspan>
        </text>
      </g>
      <g id="Group_2477">
        <g id="Graphic_2476">
          <rect x="449.71073" y="562.16894" width="56.5" height="71.51578" fill="#3e3d63"/>
        </g>
        <g id="Graphic_1181">
          <path d="M 511.60467 576.39264 L 479.7775 557.9827 C 478.6518 557.3391 477.26964 557.3391 476.14395 557.9827 L 444.3168 576.39264 C 443.19183 577.0421 442.49917 578.24274 442.5 579.5417 L 442.5 616.3213 C 442.5012 617.6162 443.19396 618.81185 444.3168 619.4569 L 476.14395 637.8669 C 477.26817 638.5159 478.65327 638.5159 479.7775 637.8669 L 511.60467 619.4569 C 512.73166 618.80946 513.42507 617.60754 513.42144 616.3078 L 513.42144 579.5417 C 513.4223 578.24274 512.7296 577.0421 511.60467 576.39264 Z M 507.2713 612.7954 L 496.15537 606.3761 L 496.15537 589.4734 L 479.7371 598.8937 L 479.7371 617.9093 L 494.37897 609.4579 L 505.4949 615.8772 L 477.9607 631.7706 L 450.4265 615.8772 L 461.5425 609.4579 L 476.1843 617.9093 L 476.1843 598.94755 L 459.7661 589.52724 L 459.7661 606.3761 L 448.6501 612.7954 L 448.6501 581.0086 L 476.1843 565.1152 L 476.1843 577.9403 L 461.5425 586.4051 L 477.9607 595.8254 L 494.37897 586.4051 L 479.7371 577.9403 L 479.7371 565.1152 L 507.2713 581.0086 Z" fill="white"/>
        </g>
      </g>
      <g id="Graphic_2478">
        <text transform="translate(1476.9336 376.08736) rotate(-90)" fill="white">
          <tspan font-family="Helvetica Neue" font-size="12" fill="white" x="17.961017" y="12">MANAGEMENT</tspan>
        </text>
      </g>
      <g id="Graphic_2487">
        <rect x="1154.0944" y="531.4149" width="47.37444" height="177.43803" fill="#3e3d63"/>
        <text transform="translate(1159.1076 703.8529) rotate(-90)" fill="white">
          <tspan font-family="Helvetica Neue" font-size="12" fill="white" x="48.049017" y="12">POLICY </tspan>
          <tspan font-family="Helvetica Neue" font-size="12" fill="white" x="40.659017" y="34">&amp;CONFIG</tspan>
        </text>
      </g>
      <g id="Graphic_2486">
        <rect x="1098.5212" y="508.001" width="46.87021" height="222" fill="#3e3d63"/>
        <text transform="translate(1103.2822 725.001) rotate(-90)" fill="white">
          <tspan font-family="Helvetica Neue" font-size="12" fill="white" x="9.978" y="12">SIGNING REQUESTS</tspan>
          <tspan font-family="Helvetica Neue" font-size="12" fill="white" x="53.008" y="34">&amp; METRICS</tspan>
        </text>
      </g>
      <g id="Line_2485">
        <line x1="1122.6926" y1="770.4783" x2="1122.6926" y2="470.2462" marker-end="url(#FilledArrow_Marker_6)" stroke="white" stroke-linecap="round" stroke-linejoin="round" stroke-dasharray="8.0,5.0" stroke-width="1"/>
      </g>
      <g id="Line_2484">
        <line x1="1178.7817" y1="760.5783" x2="1178.7817" y2="460.3462" marker-start="url(#FilledArrow_Marker_3)" stroke="white" stroke-linecap="round" stroke-linejoin="round" stroke-dasharray="8.0,5.0" stroke-width="1"/>
      </g>
      <g id="Group_2488">
        <g id="Group_2490">
          <g id="Graphic_2493">
            <path d="M 605.08086 762.96 L 815.8396 762.96 C 818.601 762.96 820.8396 765.1985 820.8396 767.96 L 820.8396 863.7876 C 820.8396 866.549 818.601 868.7876 815.8396 868.7876 L 605.08086 868.7876 C 602.31944 868.7876 600.08086 866.549 600.08086 863.7876 L 600.08086 767.96 C 600.08086 765.1985 602.31944 762.96 605.08086 762.96 Z" stroke="#00c1d5" stroke-linecap="round" stroke-linejoin="round" stroke-width="1"/>
          </g>
          <g id="Graphic_2492">
            <path d="M 612.58765 771.1164 L 823.3464 771.1164 C 826.1078 771.1164 828.3464 773.3549 828.3464 776.1164 L 828.3464 871.944 C 828.3464 874.7054 826.1078 876.944 823.3464 876.944 L 612.58765 876.944 C 609.8262 876.944 607.58765 874.7054 607.58765 871.944 L 607.58765 776.1164 C 607.58765 773.3549 609.8262 771.1164 612.58765 771.1164 Z" fill="#3e3d63"/>
            <path d="M 612.58765 771.1164 L 823.3464 771.1164 C 826.1078 771.1164 828.3464 773.3549 828.3464 776.1164 L 828.3464 871.944 C 828.3464 874.7054 826.1078 876.944 823.3464 876.944 L 612.58765 876.944 C 609.8262 876.944 607.58765 874.7054 607.58765 871.944 L 607.58765 776.1164 C 607.58765 773.3549 609.8262 771.1164 612.58765 771.1164 Z" stroke="#00c1d5" stroke-linecap="round" stroke-linejoin="round" stroke-width="1"/>
          </g>
          <g id="Graphic_2491">
            <path d="M 619.3735 781.0391 L 830.1323 781.0391 C 832.8937 781.0391 835.1323 783.2777 835.1323 786.0391 L 835.1323 881.8668 C 835.1323 884.6282 832.8937 886.8668 830.1323 886.8668 L 619.3735 886.8668 C 616.6121 886.8668 614.3735 884.6282 614.3735 881.8668 L 614.3735 786.0391 C 614.3735 783.2777 616.6121 781.0391 619.3735 781.0391 Z" fill="#3e3d63"/>
            <path d="M 619.3735 781.0391 L 830.1323 781.0391 C 832.8937 781.0391 835.1323 783.2777 835.1323 786.0391 L 835.1323 881.8668 C 835.1323 884.6282 832.8937 886.8668 830.1323 886.8668 L 619.3735 886.8668 C 616.6121 886.8668 614.3735 884.6282 614.3735 881.8668 L 614.3735 786.0391 C 614.3735 783.2777 616.6121 781.0391 619.3735 781.0391 Z" stroke="#00c1d5" stroke-linecap="round" stroke-linejoin="round" stroke-width="1"/>
          </g>
        </g>
        <g id="Graphic_2489">
          <text transform="translate(577.5 820.6075)" fill="white">
            <tspan font-family="Helvetica" font-size="17" fill="white" x="115.52805" y="16">NGINX</tspan>
          </text>
        </g>
      </g>
      <g id="Group_2588">
        <g id="Line_2591"/>
        <g id="Line_2590"/>
        <g id="Line_2589"/>
      </g>
      <g id="Group_2594">
        <g id="Line_2597"/>
        <g id="Line_2596"/>
        <g id="Line_2595"/>
      </g>
      <g id="Group_2600">
        <g id="Line_2603"/>
        <g id="Line_2602"/>
        <g id="Line_2601"/>
      </g>
      <g id="Graphic_2626">
        <text transform="translate(788.5941 857.2062)" fill="white">
          <tspan font-family="Mulish" font-size="16.0316308306474" fill="white" x="0" y="16">VCert</tspan>
        </text>
      </g>
      <g id="Line_1070">
        <line x1="1006.1" y1="856.166" x2="810" y2="856.166" marker-start="url(#FilledArrow_Marker_5)" stroke="white" stroke-linecap="round" stroke-linejoin="round" stroke-width="2"/>
      </g>
      <g id="Graphic_2632">
        <text transform="translate(422.20073 1001.6638)" fill="white">
          <tspan font-family="Helvetica Neue" font-size="17" fill="white" x="22026825e-20" y="16">Host Filesystem</tspan>
        </text>
      </g>
      <g id="Line_2636">
        <path d="M 543.69996 958.9209 L 775.4096 958.0524 C 791.9342 957.9905 805.2972 944.5773 805.2972 928.0526 L 805.2972 883.2867" marker-end="url(#FilledArrow_Marker_6)" marker-start="url(#FilledArrow_Marker_3)" stroke="white" stroke-linecap="round" stroke-linejoin="round" stroke-dasharray="0.5,2.0" stroke-width=".5"/>
      </g>
      <g id="Graphic_2679">
        <title>Shape</title>
        <path d="M 465.94673 926.2732 L 447.0068 907.5413 L 416.82776 907.5413 C 413.49766 907.5413 410.79195 910.247 410.79195 913.5771 L 410.79195 992.8752 C 410.79195 996.2053 413.49766 998.911 416.82776 998.911 L 532.7569 998.911 C 539.20894 998.911 539.83333 995.9971 539.83333 992.667 L 539.83333 923.9837 C 539.83333 920.4455 539.20894 917.7398 532.7569 917.7398 L 457.8296 917.7398" fill="#3e3d63"/>
        <path d="M 465.94673 926.2732 L 447.0068 907.5413 L 416.82776 907.5413 C 413.49766 907.5413 410.79195 910.247 410.79195 913.5771 L 410.79195 992.8752 C 410.79195 996.2053 413.49766 998.911 416.82776 998.911 L 532.7569 998.911 C 539.20894 998.911 539.83333 995.9971 539.83333 992.667 L 539.83333 923.9837 C 539.83333 920.4455 539.20894 917.7398 532.7569 917.7398 L 457.8296 917.7398" stroke="white" stroke-linecap="butt" stroke-linejoin="round" stroke-width="1"/>
      </g>
      <g id="Graphic_2634">
        <text transform="translate(460.86853 953.2391)" fill="white">
          <tspan font-family="Mulish" font-size="24.2978612345843" fill="white" x="0" y="24">VCert</tspan>
        </text>
      </g>
      <g id="Graphic_2680">
        <title>Shape</title>
        <path d="M 647.51965 831.2782 L 637.1102 820.9831 L 620.52375 820.9831 C 618.6935 820.9831 617.20645 822.4702 617.20645 824.3004 L 617.20645 867.8828 C 617.20645 869.713 618.6935 871.2001 620.52375 871.2001 L 684.2387 871.2001 C 687.7847 871.2001 688.1279 869.5987 688.1279 867.7684 L 688.1279 830.0199 C 688.1279 828.0753 687.7847 826.5882 684.2387 826.5882 L 643.0585 826.5882" fill="#3e3d63"/>
        <path d="M 647.51965 831.2782 L 637.1102 820.9831 L 620.52375 820.9831 C 618.6935 820.9831 617.20645 822.4702 617.20645 824.3004 L 617.20645 867.8828 C 617.20645 869.713 618.6935 871.2001 620.52375 871.2001 L 684.2387 871.2001 C 687.7847 871.2001 688.1279 869.5987 688.1279 867.7684 L 688.1279 830.0199 C 688.1279 828.0753 687.7847 826.5882 684.2387 826.5882 L 643.0585 826.5882" stroke="white" stroke-linecap="butt" stroke-linejoin="round" stroke-width=".5"/>
      </g>
      <g id="Group_2670">
        <g id="Graphic_2668">
          <path d="M 659.2561 854.0135 C 656.0409 854.0135 653.4406 851.3479 653.4406 848.0688 C 653.4406 844.7898 656.04834 842.1241 659.2561 842.1241 C 661.5379 842.1241 663.5159 843.4721 664.44935 845.4183 L 679.90305 845.4183 L 682.4811 848.0537 L 679.91045 850.6815 L 678.3399 849.5683 L 676.0359 850.6815 L 674.09494 849.3638 L 672.154 850.6815 L 669.4129 849.4395 L 668.272 850.2271 L 664.4271 850.2271 C 663.5085 852.658 661.5379 854.006 659.2487 854.006 Z" stroke="#f26b47" stroke-linecap="butt" stroke-linejoin="round" stroke-width=".68"/>
        </g>
        <g id="Graphic_2667">
          <ellipse cx="656.7225" cy="848.0688" rx="1.09642981215462" ry="1.12078688512214" stroke="#f26b47" stroke-linecap="butt" stroke-linejoin="round" stroke-width=".68"/>
        </g>
      </g>
      <g id="Group_2639">
        <g id="Graphic_2650">
          <path d="M 630.2007 851.1872 L 638.1601 851.1872 M 630.2545 854.1742 L 632.80635 854.1742" stroke="#797891" stroke-linecap="round" stroke-linejoin="round" stroke-width=".50370514"/>
        </g>
        <g id="Graphic_2649"/>
        <g id="Line_2648">
          <path d="M 641.2714 856.354 L 626.75014 856.354 L 626.75014 841.0553 L 646.2713 841.0553 L 646.2713 843.705" stroke="#19bfd3" stroke-linecap="round" stroke-linejoin="round" stroke-width=".50370514"/>
        </g>
        <g id="Graphic_2647">
          <path d="M 646.2713 844.9587 L 647.5117 846.2221 L 649.98225 846.2221 L 649.98225 848.7436 L 651.2222 850.0016 L 649.98225 851.2606 L 649.98225 853.7821 L 647.5117 853.7821 L 646.2713 855.0455 L 645.0358 853.7821 L 642.5603 853.7821 L 642.5603 851.2606 L 641.3209 850.0016 L 642.5603 848.7436 L 642.5603 846.2221 L 645.0358 846.2221 Z" stroke="#f2653a" stroke-linecap="round" stroke-linejoin="round" stroke-width=".50370514"/>
        </g>
        <g id="Line_2646">
          <path d="M 649.0737 853.7821 L 651.2623 860.5853 L 649.3601 859.6782 L 648.3571 861.557 L 646.2713 855.0861" stroke="#f2653a" stroke-linecap="round" stroke-linejoin="round" stroke-width=".50370514"/>
        </g>
        <g id="Graphic_2645"/>
        <g id="Line_2644">
          <path d="M 644.5433 850.0021 L 645.9805 851.4657 L 648.3801 848.5385" stroke="#f2653a" stroke-linecap="butt" stroke-linejoin="round" stroke-width=".50370514"/>
        </g>
        <g id="Graphic_2643"/>
        <g id="Line_2642">
          <path d="M 643.4693 853.7821 L 641.28025 860.5853 L 643.1825 859.6782 L 644.1899 861.557 L 646.2718 855.0861" stroke="#f2653a" stroke-linecap="round" stroke-linejoin="round" stroke-width=".50370514"/>
        </g>
        <g id="Graphic_2641"/>
        <g id="Graphic_2640">
          <title>Text</title>
          <text transform="translate(629.61585 842.1016)" fill="#f2653a">
            <tspan font-family="Helvetica Neue" font-size="6.04183898744811" fill="#f2653a" x="0" y="6">TLS</tspan>
          </text>
        </g>
      </g>
      <g id="Graphic_2681">
        <text transform="translate(615.26354 870.7823)" fill="white">
          <tspan font-family="Helvetica Neue" font-size="12" fill="white" x="0" y="12"> Container Filesystem</tspan>
        </text>
      </g>
      <g id="Line_2683">
        <path d="M 790.5 819.7667 L 790.5 682.5 C 790.5 672.5589 798.5589 664.5 808.5 664.5 C 808.5095 664.5 808.5189 664.5 808.5284 664.5 L 852.1279 664.5687" marker-start="url(#FilledArrow_Marker_3)" stroke="white" stroke-linecap="round" stroke-linejoin="round" stroke-dasharray="8.0,5.0" stroke-width="1"/>
      </g>
      <g id="Group_2684">
        <g id="Graphic_2689">
          <path d="M 805.9983 730.7616 L 805.9983 737.5141 L 809.7642 737.5141 L 809.7642 730.7616 L 807.8834 728.1848 L 806.0005 730.7616 Z M 805.9748 712.5 L 805.9983 719.2291 L 807.8813 721.8058 L 809.7621 719.2291 L 809.7386 712.5 L 805.9727 712.5 Z" fill="white"/>
        </g>
        <g id="Graphic_2688">
          <path d="M 809.7642 730.7616 L 813.7308 736.2161 L 816.7644 734.0151 L 812.7978 728.5584 L 809.7642 727.58276 Z M 798.9746 715.9734 L 802.9412 721.4258 L 806.0005 722.4036 L 806.0005 719.2291 L 802.0083 713.7724 L 798.9746 715.9734 Z" fill="white"/>
        </g>
        <g id="Graphic_2687">
          <path d="M 810.9149 725.9816 L 812.7978 728.5584 L 819.2195 730.6356 L 820.3744 727.0875 L 813.9528 725.01025 L 810.9149 725.98375 Z M 795.3625 722.90315 L 801.7841 725.00385 L 804.8177 724.0026 L 802.9391 721.4301 L 796.5174 719.3529 Z" fill="white"/>
        </g>
        <g id="Graphic_2686">
          <path d="M 795.3625 727.0853 L 796.5174 730.6356 L 802.9391 728.5584 L 804.822 725.9816 L 801.782 725.0081 Z M 812.7936 721.4344 L 810.9106 724.0111 L 813.9507 725.0081 L 820.3723 722.9074 L 819.21735 719.35716 L 812.7957 721.4344 Z" fill="white"/>
        </g>
        <g id="Graphic_2685">
          <path d="M 802.9412 728.5584 L 798.9746 734.0151 L 802.0083 736.2161 L 805.9983 730.7594 L 805.9983 727.5806 L 802.9391 728.55625 Z M 809.7642 719.2248 L 809.7642 722.4036 L 812.7978 721.4301 L 816.7644 715.9734 L 813.7308 713.7724 L 809.7642 719.2248 Z" fill="white"/>
        </g>
      </g>
      <g id="Group_2690">
        <g id="Graphic_2696">
          <rect x="912.3257" y="812.0135" width="54.2" height="42" fill="#3d3d61"/>
        </g>
        <g id="Group_2691">
          <g id="Group_2693">
            <g id="Graphic_2695">
              <path d="M 923.5507 837.1147 L 939.4307 837.1147 M 923.6607 843.0747 L 928.7507 843.0747" stroke="#7e7d94" stroke-linecap="round" stroke-linejoin="round" stroke-width="1.01"/>
            </g>
            <g id="Graphic_2694">
              <rect x="918.5807" y="819.7147" width="41.69" height="28.66" stroke="#32c1d4" stroke-linecap="round" stroke-linejoin="round" stroke-width="1.01"/>
            </g>
          </g>
          <g id="Graphic_2692">
            <text transform="translate(928.1232 822.2438)" fill="#f26b46">
              <tspan font-family="Helvetica Neue" font-size="11" fill="#f26b46" x="0" y="10">CSR</tspan>
            </text>
          </g>
        </g>
      </g>
      <g id="Line_2697">
        <line x1="974.5757" y1="836.2904" x2="966.5257" y2="836.2904" marker-start="url(#FilledArrow_Marker_3)" stroke="white" stroke-linecap="round" stroke-linejoin="round" stroke-width=".5"/>
      </g>
      <g id="Group_2698">
        <g id="Graphic_2709">
          <path d="M 879.4043 883.2525 L 894.48 883.2525 M 879.5063 888.9101 L 884.3396 888.9101" stroke="#797891" stroke-linecap="round" stroke-linejoin="round" stroke-width=".9540532"/>
        </g>
        <g id="Graphic_2708"/>
        <g id="Line_2707">
          <path d="M 900.3731 893.0388 L 872.8687 893.0388 L 872.8687 864.0621 L 909.8432 864.0621 L 909.8432 869.0808" stroke="#19bfd3" stroke-linecap="round" stroke-linejoin="round" stroke-width=".9540532"/>
        </g>
        <g id="Graphic_2706">
          <path d="M 909.8432 871.4553 L 912.1926 873.8483 L 916.872 873.8483 L 916.872 878.6241 L 919.2205 881.007 L 916.872 883.3916 L 916.872 888.1675 L 912.1926 888.1675 L 909.8432 890.5605 L 907.503 888.1675 L 902.8143 888.1675 L 902.8143 883.3916 L 900.4667 881.007 L 902.8143 878.6241 L 902.8143 873.8483 L 907.503 873.8483 Z" stroke="#f2653a" stroke-linecap="round" stroke-linejoin="round" stroke-width=".9540532"/>
        </g>
        <g id="Line_2705">
          <path d="M 915.1512 888.1675 L 919.2965 901.0532 L 915.6936 899.3352 L 913.7938 902.8936 L 909.8432 890.6374" stroke="#f2653a" stroke-linecap="round" stroke-linejoin="round" stroke-width=".9540532"/>
        </g>
        <g id="Graphic_2704"/>
        <g id="Line_2703">
          <path d="M 906.5703 881.0079 L 909.2924 883.7801 L 913.8374 878.2357" stroke="#f2653a" stroke-linecap="butt" stroke-linejoin="round" stroke-width=".9540532"/>
        </g>
        <g id="Graphic_2702"/>
        <g id="Line_2701">
          <path d="M 904.5361 888.1675 L 900.3898 901.0532 L 903.9927 899.3352 L 905.9009 902.8936 L 909.8441 890.6374" stroke="#f2653a" stroke-linecap="round" stroke-linejoin="round" stroke-width=".9540532"/>
        </g>
        <g id="Graphic_2700"/>
        <g id="Graphic_2699">
          <title>Text</title>
          <text transform="translate(878.2966 866.1731)" fill="#f2653a">
            <tspan font-family="Helvetica Neue" font-size="11.4439753587052" fill="#f2653a" x="0" y="11">TLS</tspan>
          </text>
        </g>
      </g>
      <g id="Line_2710">
        <line x1="857.6" y1="878.8517" x2="865.65" y2="878.8517" marker-start="url(#FilledArrow_Marker_3)" stroke="white" stroke-linecap="round" stroke-linejoin="round" stroke-width=".5"/>
      </g>
      <g id="Group_2722">
        <g id="Graphic_2718">
          <path d="M 92.73015 477.72334 L 123.99993 477.72334 C 128.26917 477.72334 131.73007 481.18424 131.73007 485.4535 L 131.73007 516.72326 C 131.73007 520.9925 128.26917 524.4534 123.99993 524.4534 L 92.73015 524.4534 C 88.4609 524.4534 85 520.9925 85 516.72326 L 85 485.4535 C 85 481.18424 88.4609 477.72334 92.73015 477.72334 Z" fill="#3e3d63"/>
          <path d="M 92.73015 477.72334 L 123.99993 477.72334 C 128.26917 477.72334 131.73007 481.18424 131.73007 485.4535 L 131.73007 516.72326 C 131.73007 520.9925 128.26917 524.4534 123.99993 524.4534 L 92.73015 524.4534 C 88.4609 524.4534 85 520.9925 85 516.72326 L 85 485.4535 C 85 481.18424 88.4609 477.72334 92.73015 477.72334 Z" stroke="white" stroke-linecap="round" stroke-linejoin="round" stroke-width=".51534306"/>
        </g>
        <g id="Graphic_2719">
          <path d="M 105.64921 457.6439 L 142.6697 457.6439 C 147.72409 457.6439 151.82148 461.7413 151.82148 466.79567 L 151.82148 503.81616 C 151.82148 508.87055 147.72409 512.96793 142.6697 512.96793 L 105.64921 512.96793 C 100.59483 512.96793 96.49744 508.87055 96.49744 503.81616 L 96.49744 466.79567 C 96.49744 461.7413 100.59483 457.6439 105.64921 457.6439 Z" fill="#3e3d63"/>
          <path d="M 105.64921 457.6439 L 142.6697 457.6439 C 147.72409 457.6439 151.82148 461.7413 151.82148 466.79567 L 151.82148 503.81616 C 151.82148 508.87055 147.72409 512.96793 142.6697 512.96793 L 105.64921 512.96793 C 100.59483 512.96793 96.49744 508.87055 96.49744 503.81616 L 96.49744 466.79567 C 96.49744 461.7413 100.59483 457.6439 105.64921 457.6439 Z" stroke="white" stroke-linecap="round" stroke-linejoin="round" stroke-width=".61011794"/>
        </g>
        <g id="Graphic_2720">
          <path d="M 123.35782 429.016 L 169.24208 429.016 C 175.50663 429.016 180.58505 434.09443 180.58505 440.359 L 180.58505 486.24324 C 180.58505 492.5078 175.50663 497.5862 169.24208 497.5862 L 123.35782 497.5862 C 117.09328 497.5862 112.01486 492.5078 112.01486 486.24324 L 112.01486 440.359 C 112.01486 434.09443 117.09328 429.016 123.35782 429.016 Z" fill="#3e3d63"/>
          <path d="M 123.35782 429.016 L 169.24208 429.016 C 175.50663 429.016 180.58505 434.09443 180.58505 440.359 L 180.58505 486.24324 C 180.58505 492.5078 175.50663 497.5862 169.24208 497.5862 L 123.35782 497.5862 C 117.09328 497.5862 112.01486 492.5078 112.01486 486.24324 L 112.01486 440.359 C 112.01486 434.09443 117.09328 429.016 123.35782 429.016 Z" stroke="white" stroke-linecap="round" stroke-linejoin="round" stroke-width=".75619765"/>
        </g>
        <g id="Graphic_2721">
          <path d="M 141.99266 400.5466 L 196.62408 400.5466 C 204.08286 400.5466 210.1294 406.59313 210.1294 414.0519 L 210.1294 468.68333 C 210.1294 476.1421 204.08286 482.18867 196.62408 482.18867 L 141.99266 482.18867 C 134.53388 482.18867 128.48733 476.1421 128.48733 468.68333 L 128.48733 414.0519 C 128.48733 406.59313 134.53388 400.5466 141.99266 400.5466 Z" fill="#3e3d63"/>
          <path d="M 141.99266 400.5466 L 196.62408 400.5466 C 204.08286 400.5466 210.1294 406.59313 210.1294 414.0519 L 210.1294 468.68333 C 210.1294 476.1421 204.08286 482.18867 196.62408 482.18867 L 141.99266 482.18867 C 134.53388 482.18867 128.48733 476.1421 128.48733 468.68333 L 128.48733 414.0519 C 128.48733 406.59313 134.53388 400.5466 141.99266 400.5466 Z" stroke="white" stroke-linecap="round" stroke-linejoin="round" stroke-width=".9003554"/>
        </g>
      </g>
      <g id="Line_2723">
        <line x1="333.35383" y1="448.15505" x2="217.21245" y2="448.15505" marker-start="url(#FilledArrow_Marker_5)" stroke="white" stroke-linecap="round" stroke-linejoin="round" stroke-width="2"/>
      </g>
      <g id="Group_2725">
        <g id="Line_2728"/>
        <g id="Line_2727"/>
        <g id="Line_2726"/>
      </g>
      <g id="Group_2765">
        <g id="Group_2766">
          <g id="Line_2769">
            <line x1="445.9705" y1="930.3249" x2="434.06286" y2="962.0569" stroke="#ff6333" stroke-linecap="round" stroke-linejoin="round" stroke-width="3.9129784"/>
          </g>
          <g id="Line_2768">
            <path d="M 430.34884 946.0443 L 422.52986 938.209 L 430.34884 930.39" stroke="white" stroke-linecap="round" stroke-linejoin="round" stroke-width="3.9129784"/>
          </g>
          <g id="Line_2767">
            <path d="M 449.83115 945.637 L 457.65013 953.456 L 449.83115 961.2913" stroke="white" stroke-linecap="round" stroke-linejoin="round" stroke-width="3.9129784"/>
          </g>
        </g>
      </g>
      <g id="Group_2770">
        <g id="Group_2771">
          <g id="Line_2774">
            <line x1="791.87935" y1="833.3904" x2="783.3989" y2="855.9893" stroke="#ff6333" stroke-linecap="round" stroke-linejoin="round" stroke-width="2.7867465"/>
          </g>
          <g id="Line_2773">
            <path d="M 780.7539 844.5855 L 775.1854 839.0053 L 780.7539 833.4368" stroke="white" stroke-linecap="round" stroke-linejoin="round" stroke-width="2.7867465"/>
          </g>
          <g id="Line_2772">
            <path d="M 794.6288 844.2954 L 800.1973 849.864 L 794.6288 855.4441" stroke="white" stroke-linecap="round" stroke-linejoin="round" stroke-width="2.7867465"/>
          </g>
        </g>
      </g>
    </g>
    <g id="Container-Playground_ZTPKI">
      <title>ZTPKI</title>
      <g id="Line_2410">
        <line x1="1598.3" y1="455.32697" x2="676.2" y2="455.32697" marker-end="url(#NegativeControls_Marker)" marker-start="url(#NegativeControls_Marker_2)" stroke="#ff6432" stroke-linecap="round" stroke-linejoin="round" stroke-width="2"/>
      </g>
    </g>
    <g id="Container-Playground_apps">
      <title>apps</title>
      <g id="Graphic_2281">
        <text transform="translate(641.1849 936.2075)" fill="white">
          <tspan font-family="Helvetica Neue" font-size="13" fill="white" x="1563194e-19" y="12">Volume Mount</tspan>
        </text>
      </g>
    </g>
    <g id="Container-Playground_Infosec-TLSPD">
      <title>Infosec-TLSPD</title>
      <g id="Graphic_859">
        <text transform="translate(1326.5502 107.3678)" fill="white">
          <tspan font-family="Helvetica" font-size="25" fill="white" x="22.51416" y="24">InfoSec/Operational </tspan>
          <tspan font-family="Helvetica" font-size="25" fill="white" x="50.27661" y="54">Security Teams</tspan>
        </text>
      </g>
      <g id="Line_916">
        <line x1="1468.5502" y1="189.9" x2="1468.5502" y2="429.68173" marker-end="url(#FilledArrow_Marker)" marker-start="url(#FilledArrow_Marker_2)" stroke="white" stroke-linecap="round" stroke-linejoin="round" stroke-dasharray="3.0,12.0" stroke-width="3"/>
      </g>
      <g id="Group_2411">
        <g id="Group_2424">
          <g id="Graphic_2439">
            <path d="M 751.2496 435.5169 L 751.2496 418.2332 L 744.4754 418.2332 L 744.4754 416.3339 L 760.2607 416.3339 L 760.2607 418.2332 L 753.5076 418.2332 L 753.5076 435.5169 Z" fill="white"/>
          </g>
          <g id="Graphic_2438">
            <path d="M 763.0464 435.5169 L 763.0464 416.3339 L 765.3045 416.3339 L 765.3045 433.5754 L 774.9909 433.5754 L 774.9909 435.538 L 763.0464 435.538 Z" fill="white"/>
          </g>
          <g id="Graphic_2437">
            <path d="M 783.64335 435.74904 C 782.1028 435.74904 780.7311 435.5591 779.5071 435.15814 C 778.2831 434.7572 777.2279 434.1874 776.3205 433.44876 L 777.1435 431.65497 C 777.7766 432.11925 778.4097 432.5202 779.0639 432.83676 C 779.7181 433.1533 780.3934 433.38545 781.1531 433.5543 C 781.8918 433.702 782.7359 433.7864 783.6645 433.7864 C 785.2894 433.7864 786.4712 433.49097 787.252 432.87897 C 788.0329 432.2881 788.4127 431.48614 788.4127 430.4732 C 788.4127 429.62904 788.1384 428.97484 787.5897 428.51056 C 787.041 428.0674 786.09135 427.68753 784.7407 427.4132 L 781.8918 426.8434 C 780.1402 426.48463 778.8107 425.89373 777.9665 425.0707 C 777.1013 424.24767 776.6792 423.1503 776.6792 421.75746 C 776.6792 420.61787 776.9747 419.626 777.5656 418.76077 C 778.1565 417.91663 778.9795 417.2413 780.0558 416.77705 C 781.132 416.31277 782.3771 416.05953 783.7911 416.05953 C 785.1417 416.05953 786.3868 416.27057 787.5264 416.67153 C 788.6449 417.0725 789.6156 417.6845 790.4176 418.4442 L 789.6367 420.1958 C 788.7926 419.4361 787.8851 418.8874 786.9566 418.54974 C 786.028 418.2121 784.9729 418.04325 783.7911 418.04325 C 782.2927 418.04325 781.132 418.3598 780.2668 419.014 C 779.4016 419.6682 778.9795 420.53346 778.9795 421.63084 C 778.9795 422.5172 779.2538 423.2136 779.8025 423.7201 C 780.3512 424.22656 781.2376 424.6064 782.5038 424.85966 L 785.3949 425.42946 C 787.252 425.8093 788.6027 426.3791 789.489 427.13884 C 790.3542 427.89856 790.7974 428.97484 790.7974 430.34656 C 790.7974 431.40173 790.502 432.3303 789.9322 433.1533 C 789.3624 433.97635 788.53935 434.60945 787.5053 435.0526 C 786.3446 435.5169 785.0995 435.74904 783.64335 435.74904 Z" fill="white"/>
          </g>
          <g id="Graphic_2436">
            <path d="M 801.4547 435.5169 L 801.4547 416.3339 L 809.2629 416.3339 C 811.26775 416.3339 812.8294 416.81926 813.9268 417.79 C 815.0242 418.76077 815.55175 420.1114 815.55175 421.84187 C 815.55175 422.96036 815.2985 423.9522 814.8131 424.77525 C 814.32775 425.5983 813.6102 426.2314 812.6606 426.67456 C 811.7109 427.11773 810.5924 427.34987 809.2629 427.34987 L 803.7127 427.34987 L 803.7127 435.538 Z M 803.7127 425.42946 L 809.0519 425.42946 C 810.4447 425.42946 811.4999 425.1129 812.2174 424.4798 C 812.9349 423.8467 813.2937 422.96036 813.2937 421.82077 C 813.2937 420.6601 812.9349 419.75263 812.2174 419.11953 C 811.4999 418.48643 810.4447 418.1699 809.0519 418.1699 L 803.7127 418.1699 Z" fill="white"/>
          </g>
          <g id="Graphic_2435">
            <path d="M 818.6117 435.5169 L 818.6117 425.1551 C 818.6117 424.6064 818.5906 424.05773 818.5695 423.48794 C 818.5484 422.91815 818.5062 422.39056 818.4429 421.863 L 820.5744 421.863 L 820.8276 425.1551 L 820.4477 425.1762 C 820.6377 424.3532 820.9542 423.67787 821.3974 423.1714 C 821.8406 422.6438 822.3893 422.24284 823.0013 421.9896 C 823.6133 421.73636 824.2675 421.58863 824.9428 421.58863 C 825.2171 421.58863 825.4493 421.58863 825.6603 421.60974 C 825.8713 421.63084 826.0613 421.67305 826.2512 421.73636 L 826.2301 423.699 C 825.9557 423.61456 825.7025 423.55125 825.4915 423.53015 C 825.2593 423.50904 825.0061 423.48794 824.7106 423.48794 C 823.9087 423.48794 823.2123 423.67787 822.6214 424.05773 C 822.0305 424.4376 821.5873 424.923 821.2919 425.535 C 820.9964 426.147 820.8487 426.75897 820.8487 427.4343 L 820.8487 435.4958 Z" fill="white"/>
          </g>
          <g id="Graphic_2434">
            <path d="M 833.97505 435.74904 C 832.6666 435.74904 831.5271 435.4536 830.5563 434.8838 C 829.5855 434.314 828.8469 433.49097 828.3193 432.4358 C 827.7917 431.38063 827.5385 430.1144 827.5385 428.6583 C 827.5385 427.18104 827.7917 425.93594 828.3193 424.88077 C 828.8469 423.8256 829.5855 423.02367 830.5563 422.45387 C 831.5271 421.8841 832.6666 421.58863 833.97505 421.58863 C 835.3046 421.58863 836.4442 421.8841 837.4149 422.45387 C 838.3857 423.02367 839.1454 423.8467 839.673 424.88077 C 840.2006 425.93594 840.4749 427.20215 840.4749 428.6583 C 840.4749 430.1144 840.2006 431.3595 839.673 432.4358 C 839.1454 433.49097 838.3857 434.314 837.4149 434.8838 C 836.4653 435.4747 835.3046 435.74904 833.97505 435.74904 Z M 833.97505 433.95525 C 835.2835 433.95525 836.3175 433.5121 837.0773 432.60463 C 837.837 431.6972 838.2168 430.38877 838.2168 428.6794 C 838.2168 426.9278 837.837 425.6194 837.0773 424.71194 C 836.3175 423.8045 835.2835 423.3613 833.97505 423.3613 C 832.6877 423.3613 831.6537 423.8045 830.8939 424.71194 C 830.1342 425.6194 829.7544 426.9278 829.7544 428.6794 C 829.7544 430.40987 830.1342 431.7183 830.8939 432.60463 C 831.6748 433.5121 832.6877 433.95525 833.97505 433.95525 Z" fill="white"/>
          </g>
          <g id="Graphic_2433">
            <path d="M 848.6419 435.74904 C 847.2913 435.74904 846.2784 435.3692 845.5608 434.58835 C 844.8433 433.8075 844.5057 432.64683 844.5057 431.0852 L 844.5057 423.55125 L 841.8466 423.55125 L 841.8466 421.84187 L 844.5057 421.84187 L 844.5057 418.10657 L 846.7004 417.47346 L 846.7004 421.82077 L 850.6257 421.82077 L 850.6257 423.53015 L 846.7004 423.53015 L 846.7004 430.85304 C 846.7004 431.9504 846.8904 432.71014 847.2491 433.1744 C 847.629 433.6387 848.1777 433.87083 848.9163 433.87083 C 849.2539 433.87083 849.5705 433.84973 849.8448 433.7653 C 850.1192 433.702 850.3724 433.6176 850.5835 433.5332 L 850.5835 435.3903 C 850.3302 435.4958 850.0348 435.5802 849.676 435.6435 C 849.3172 435.72794 848.9796 435.74904 848.6419 435.74904 Z" fill="white"/>
          </g>
          <g id="Graphic_2432">
            <path d="M 859.257 435.74904 C 857.843 435.74904 856.619 435.4747 855.585 434.926 C 854.5509 434.3773 853.749 433.5543 853.1792 432.4991 C 852.6094 431.44394 852.335 430.17773 852.335 428.7005 C 852.335 427.26546 852.6094 426.02035 853.1581 424.9652 C 853.7068 423.91 854.4665 423.087 855.4372 422.4961 C 856.408 421.9052 857.5476 421.60974 858.8138 421.60974 C 860.0589 421.60974 861.1141 421.863 861.9793 422.39056 C 862.8234 422.91815 863.4777 423.65677 863.9419 424.62753 C 864.3851 425.5983 864.6172 426.73787 864.6172 428.0674 L 864.6172 428.8904 L 854.0233 428.8904 L 854.0233 427.4976 L 863.1611 427.4976 L 862.6968 427.85635 C 862.6968 426.4002 862.3803 425.26063 861.7261 424.4587 C 861.0719 423.63567 860.1011 423.2347 858.8138 423.2347 C 857.8852 423.2347 857.1044 423.44573 856.4502 423.8889 C 855.796 424.3321 855.3106 424.923 854.973 425.7038 C 854.6353 426.48463 854.4665 427.4132 854.4665 428.51056 L 854.4665 428.7638 C 854.4665 430.4732 854.8886 431.7605 855.7327 432.64683 C 856.5768 433.5332 857.7586 433.97635 859.2781 433.97635 C 860.1011 433.97635 860.8608 433.84973 861.5783 433.6176 C 862.2959 433.36435 862.9712 432.9634 863.6254 432.4147 L 864.3851 433.97635 C 863.7942 434.56725 863.0345 435.0104 862.1059 435.32697 C 861.2407 435.6013 860.2699 435.74904 859.257 435.74904 Z" fill="white"/>
          </g>
          <g id="Graphic_2431">
            <path d="M 873.7339 435.74904 C 872.3833 435.74904 871.2226 435.4536 870.2308 434.8838 C 869.2389 434.2929 868.4792 433.46987 867.9516 432.4147 C 867.424 431.3384 867.1497 430.0722 867.1497 428.59497 C 867.1497 427.09663 867.424 425.85153 867.9727 424.79635 C 868.5214 423.7623 869.2811 422.96036 870.273 422.41167 C 871.2648 421.863 872.4255 421.58863 873.7339 421.58863 C 874.5992 421.58863 875.4433 421.73636 876.2874 422.0529 C 877.1105 422.36946 877.8069 422.79153 878.3345 423.3613 L 877.5536 424.9441 C 877.005 424.4165 876.4141 424.03663 875.781 423.7834 C 875.1268 423.53015 874.5148 423.40353 873.8817 423.40353 C 872.4677 423.40353 871.3703 423.8467 870.5895 424.73304 C 869.8087 425.6194 869.4288 426.9278 869.4288 428.6161 C 869.4288 430.30435 869.8087 431.61276 870.5895 432.5413 C 871.3703 433.46987 872.4677 433.93414 873.8817 433.93414 C 874.4725 433.93414 875.1056 433.8075 875.7388 433.5754 C 876.393 433.34325 876.9839 432.9423 877.5536 432.4147 L 878.3345 433.97635 C 877.7647 434.56725 877.0683 435.0104 876.2452 435.30587 C 875.4011 435.6013 874.557 435.74904 873.7339 435.74904 Z" fill="white"/>
          </g>
          <g id="Graphic_2430">
            <path d="M 886.3116 435.74904 C 884.961 435.74904 883.948 435.3692 883.2305 434.58835 C 882.513 433.8075 882.1753 432.64683 882.1753 431.0852 L 882.1753 423.55125 L 879.4952 423.55125 L 879.4952 421.84187 L 882.1542 421.84187 L 882.1542 418.10657 L 884.349 417.47346 L 884.349 421.82077 L 888.2742 421.82077 L 888.2742 423.53015 L 884.349 423.53015 L 884.349 430.85304 C 884.349 431.9504 884.5389 432.71014 884.8976 433.1744 C 885.2775 433.6387 885.8262 433.87083 886.5648 433.87083 C 886.9025 433.87083 887.219 433.84973 887.4934 433.7653 C 887.7677 433.702 888.021 433.6176 888.232 433.5332 L 888.232 435.3903 C 887.9787 435.4958 887.6833 435.5802 887.3245 435.6435 C 887.008 435.72794 886.6492 435.74904 886.3116 435.74904 Z" fill="white"/>
          </g>
          <g id="Graphic_2429">
            <path d="M 906.6975 435.74904 C 904.7771 435.74904 903.131 435.34807 901.8015 434.54614 C 900.4509 433.7442 899.4379 432.60463 898.7204 431.1485 C 898.0029 429.67125 897.6441 427.91966 897.6441 425.89373 C 897.6441 423.8678 898.0029 422.1162 898.7204 420.6601 C 899.4379 419.20394 900.472 418.06436 901.8015 417.26243 C 903.1521 416.4605 904.7771 416.05953 906.6975 416.05953 C 908.0692 416.05953 909.2721 416.27057 910.3484 416.69263 C 911.4247 417.1147 912.3532 417.7267 913.1551 418.50753 L 912.311 420.3013 C 911.4458 419.5416 910.5805 418.9718 909.7153 418.63415 C 908.8711 418.2754 907.8582 418.10657 906.7186 418.10657 C 904.5238 418.10657 902.8567 418.78188 901.7171 420.1536 C 900.5775 421.5253 900.0077 423.42463 900.0077 425.89373 C 900.0077 427.5398 900.261 428.95373 900.7674 430.1355 C 901.2739 431.2962 902.0336 432.20366 903.0466 432.79456 C 904.0596 433.40656 905.2836 433.702 906.7397 433.702 C 907.8793 433.702 908.8711 433.5332 909.7364 433.1744 C 910.5805 432.81566 911.4458 432.24587 912.3321 431.46504 L 913.1763 433.27994 C 912.3743 434.06076 911.4458 434.67276 910.3695 435.09483 C 909.2721 435.538 908.0692 435.74904 906.6975 435.74904 Z" fill="white"/>
          </g>
          <g id="Graphic_2428">
            <rect x="916.7216" y="415.48974" width="2.1947575" height="20.027162" fill="white"/>
          </g>
          <g id="Graphic_2427">
            <path d="M 928.7928 435.74904 C 927.4844 435.74904 926.3448 435.4536 925.374 434.8838 C 924.4033 434.314 923.6647 433.49097 923.1371 432.4358 C 922.6095 431.38063 922.3562 430.1144 922.3562 428.6583 C 922.3562 427.18104 922.6095 425.93594 923.1371 424.88077 C 923.6647 423.8256 924.4033 423.02367 925.374 422.45387 C 926.3448 421.8841 927.4844 421.58863 928.7928 421.58863 C 930.1223 421.58863 931.2619 421.8841 932.2327 422.45387 C 933.2034 423.02367 933.9631 423.8467 934.4907 424.88077 C 935.0183 425.93594 935.2927 427.20215 935.2927 428.6583 C 935.2927 430.1144 935.0183 431.3595 934.4907 432.4358 C 933.9631 433.49097 933.2034 434.314 932.2327 434.8838 C 931.283 435.4747 930.1223 435.74904 928.7928 435.74904 Z M 928.7928 433.95525 C 930.1012 433.95525 931.1353 433.5121 931.895 432.60463 C 932.6547 431.6972 933.0346 430.38877 933.0346 428.6794 C 933.0346 426.9278 932.6547 425.6194 931.895 424.71194 C 931.1353 423.8045 930.1012 423.3613 928.7928 423.3613 C 927.5055 423.3613 926.4714 423.8045 925.7117 424.71194 C 924.952 425.6194 924.5721 426.9278 924.5721 428.6794 C 924.5721 430.40987 924.952 431.7183 925.7117 432.60463 C 926.4925 433.5121 927.5055 433.95525 928.7928 433.95525 Z" fill="white"/>
          </g>
          <g id="Graphic_2426">
            <path d="M 943.5652 435.74904 C 941.9402 435.74904 940.7373 435.30587 939.8932 434.4195 C 939.0702 433.5332 938.6481 432.16145 938.6481 430.34656 L 938.6481 421.863 L 940.8429 421.863 L 940.8429 430.30435 C 940.8429 431.54945 941.0961 432.478 941.6026 433.0689 C 942.1091 433.6598 942.8899 433.95525 943.9662 433.95525 C 945.1691 433.95525 946.1187 433.5543 946.8573 432.77345 C 947.5749 431.99263 947.9547 430.93745 947.9547 429.65015 L 947.9547 421.863 L 950.1495 421.863 L 950.1495 435.538 L 947.9969 435.538 L 947.9969 432.4569 L 948.3557 432.4569 C 947.9758 433.5121 947.3638 434.3351 946.5197 434.9049 C 945.6966 435.4536 944.7048 435.74904 943.5652 435.74904 Z" fill="white"/>
          </g>
          <g id="Graphic_2425">
            <path d="M 959.6249 435.74904 C 958.422 435.74904 957.3668 435.4536 956.4594 434.8838 C 955.552 434.314 954.8555 433.49097 954.349 432.4569 C 953.8426 431.40173 953.6104 430.1355 953.6104 428.6794 C 953.6104 427.18104 953.8637 425.91484 954.349 424.85966 C 954.8555 423.8045 955.552 423.00256 956.4594 422.43277 C 957.3668 421.863 958.422 421.58863 959.6249 421.58863 C 960.8489 421.58863 961.9252 421.9052 962.8326 422.5172 C 963.7401 423.1292 964.331 423.9733 964.6475 425.0285 L 964.331 425.0285 L 964.331 415.46864 L 966.5257 415.46864 L 966.5257 435.4958 L 964.331 435.4958 L 964.331 432.22476 L 964.6264 432.22476 C 964.331 433.32214 963.7401 434.1663 962.8326 434.7994 C 961.9252 435.4325 960.8489 435.74904 959.6249 435.74904 Z M 960.0892 433.95525 C 961.3765 433.95525 962.4106 433.5121 963.1914 432.60463 C 963.9722 431.6972 964.3521 430.38877 964.3521 428.6794 C 964.3521 426.9278 963.9511 425.6194 963.1914 424.71194 C 962.4106 423.8045 961.3765 423.3613 960.0892 423.3613 C 958.8019 423.3613 957.7678 423.8045 957.0081 424.71194 C 956.2273 425.6194 955.8474 426.9278 955.8474 428.6794 C 955.8474 430.40987 956.2273 431.7183 957.0081 432.60463 C 957.7678 433.5121 958.8019 433.95525 960.0892 433.95525 Z" fill="white"/>
          </g>
        </g>
        <g id="Group_2417">
          <g id="Graphic_2423">
            <path d="M 753.4443 409.0321 L 759.902 394.5129 L 757.1585 394.5129 L 752.3681 405.69774 L 747.5987 394.5129 L 744.7497 394.5129 L 751.2074 409.0321 Z" fill="white"/>
          </g>
          <g id="Graphic_2422">
            <path d="M 766.8028 408.90547 C 767.4781 408.69443 768.069 408.3779 768.5755 407.9769 L 767.8158 406.24643 C 767.3515 406.6052 766.8661 406.85843 766.3385 407.02726 C 765.83205 407.175 765.2623 407.2594 764.6925 407.2594 C 763.6795 407.2594 762.8987 406.98505 762.3289 406.43636 C 761.8224 405.9299 761.54805 405.21236 761.50585 404.2416 L 768.7021 404.2416 L 768.7021 403.5663 C 768.7021 402.53223 768.5333 401.6459 768.1745 400.86506 C 767.8158 400.10533 767.3093 399.49333 766.634 399.07126 C 765.9587 398.6492 765.1145 398.43816 764.1227 398.43816 C 763.1097 398.43816 762.2234 398.6703 761.4636 399.11347 C 760.7039 399.55664 760.113 400.18975 759.69095 401.0128 C 759.2689 401.8147 759.05785 402.76437 759.05785 403.86174 C 759.05785 404.98023 759.29 405.9299 759.7332 406.7318 C 760.1763 407.53374 760.8094 408.16685 761.6536 408.5889 C 762.4766 409.011 763.4896 409.2431 764.6503 409.2431 C 765.41 409.222 766.1275 409.1165 766.8028 408.90547 Z M 762.7087 400.6118 C 763.1097 400.33747 763.574 400.18975 764.1649 400.18975 C 764.9246 400.18975 765.5155 400.443 765.9165 400.94947 C 766.2752 401.41375 766.4863 402.04685 766.5074 402.8699 L 761.54805 402.8699 C 761.5903 402.4689 761.6747 402.08906 761.8013 401.7725 C 762.0123 401.266 762.3078 400.88616 762.7087 400.6118 Z" fill="white"/>
          </g>
          <g id="Graphic_2421">
            <path d="M 777.65 402.78547 L 777.65 409.011 L 780.2246 409.011 L 780.2246 402.65885 C 780.2246 401.2027 779.908 400.12644 779.296 399.45113 C 778.684 398.7758 777.7555 398.41706 776.5315 398.41706 C 775.6874 398.41706 774.9276 398.607 774.2945 399.00795 C 773.7669 399.3245 773.366 399.74657 773.0494 400.29526 L 772.8806 398.6281 L 770.3904 398.6281 C 770.4537 399.05016 770.4959 399.49333 770.517 399.9154 C 770.5381 400.35857 770.5592 400.78064 770.5592 401.2027 L 770.5592 409.011 L 773.1338 409.011 L 773.1338 403.14423 C 773.1338 402.3212 773.366 401.667 773.83025 401.1605 C 774.2945 400.67513 774.9276 400.4219 775.7296 400.4219 C 776.3838 400.4219 776.848 400.6118 777.1857 400.97057 C 777.48115 401.35044 777.65 401.96244 777.65 402.78547 Z" fill="white"/>
          </g>
          <g id="Graphic_2420">
            <path d="M 790.0799 400.35857 C 789.8267 399.8521 789.4468 399.4089 788.9403 399.07126 C 788.265 398.6492 787.5053 398.41706 786.6189 398.41706 C 785.7115 398.41706 784.9096 398.6281 784.23425 399.07126 C 783.5378 399.49333 783.01025 400.12644 782.6304 400.92837 C 782.2505 401.7303 782.0606 402.70106 782.0606 403.81954 C 782.0606 404.938 782.2505 405.9088 782.6304 406.7107 C 783.01025 407.51264 783.5589 408.14574 784.23425 408.5678 C 784.9096 408.9899 785.7115 409.222 786.6189 409.222 C 787.4631 409.222 788.2228 409.011 788.8981 408.5889 C 789.3835 408.29347 789.7422 407.8925 789.9955 407.44933 L 790.0166 409.0321 L 792.5701 409.0321 L 792.5701 401.2238 C 792.5701 400.80175 792.5912 400.35857 792.6123 399.9365 C 792.6545 399.49333 792.6756 399.07126 792.7178 398.6492 L 790.2487 398.6492 Z M 789.2991 406.39416 C 788.8137 406.96395 788.1595 407.2383 787.3365 407.2383 C 786.5134 407.2383 785.8592 406.96395 785.3738 406.39416 C 784.8885 405.82436 784.6352 404.9591 784.6352 403.81954 C 784.6352 402.67995 784.8885 401.8147 785.3738 401.2449 C 785.8592 400.67513 786.5134 400.4008 787.3365 400.4008 C 788.1384 400.4008 788.7926 400.67513 789.2991 401.2449 C 789.78445 401.8147 790.0377 402.65885 790.0377 403.81954 C 790.0377 404.98023 789.78445 405.82436 789.2991 406.39416 Z" fill="white"/>
          </g>
          <g id="Graphic_2419">
            <path d="M 802.8264 409.0321 L 805.401 409.0321 L 805.401 398.6492 L 798.5424 398.6492 L 798.5424 397.84727 C 798.5424 397.17196 798.6901 396.66547 799.0067 396.3489 C 799.3232 396.03237 799.7453 395.88465 800.2729 395.88465 C 800.505 395.88465 800.7371 395.90575 800.9904 395.94796 C 801.2436 395.99016 801.4547 396.05347 801.6235 396.1168 L 801.6235 394.09085 C 801.3702 393.98534 801.0748 393.9009 800.7582 393.8587 C 800.4206 393.8165 800.104 393.7954 799.8086 393.7954 C 798.5635 393.7954 797.6138 394.13306 796.9596 394.78727 C 796.3054 395.44147 795.9889 396.41223 795.9889 397.69954 L 795.9889 398.6281 L 793.984 398.6281 L 793.984 400.5696 L 795.9889 400.5696 L 795.9889 409.0321 L 798.5635 409.0321 L 798.5635 400.5696 L 802.8264 400.5696 Z" fill="white"/>
          </g>
          <g id="Graphic_2418">
            <rect x="802.6787" y="394.17527" width="2.8700675" height="2.511309" fill="white"/>
          </g>
        </g>
        <g id="Group_2412">
          <g id="Group_2413">
            <g id="Graphic_2416">
              <path d="M 704.46326 439.58986 C 681.4816 428.36284 684.3306 396.9609 684.3306 396.9609 L 704.46326 389.5114 L 724.5959 396.9609 C 724.5959 396.9398 727.4449 428.34173 704.46326 439.58986 Z" stroke="white" stroke-linecap="round" stroke-linejoin="round" stroke-width="5.064825"/>
            </g>
            <g id="Line_2415">
              <path d="M 713.64325 410.59374 L 704.46326 410.59374 L 704.46326 400.14754" stroke="#ff6333" stroke-linecap="round" stroke-linejoin="round" stroke-width="4.431722"/>
            </g>
            <g id="Line_2414">
              <path d="M 695.8953 417.2413 L 704.46326 417.2413 L 704.46326 427.0544" stroke="#ff6333" stroke-linecap="round" stroke-linejoin="round" stroke-width="4.431722"/>
            </g>
          </g>
        </g>
      </g>
      <g id="Graphic_2440">
        <text transform="translate(523 20.652306)" fill="white">
          <tspan font-family="Helvetica Neue" font-weight="bold" font-size="35" fill="white" x="0" y="34">Using Firefly with TLS Protect Cloud</tspan>
        </text>
      </g>
      <g id="Graphic_2469">
        <clipPath id="clip_path">
          <rect x="0" y="0" width="204.71484" height="101.77065"/>
        </clipPath>
        <text clip-path="url(#clip_path)" transform="translate(406.4229 238.41432)" fill="white"/>
      </g>
      <g id="Graphic_2470">
        <text transform="translate(391.0952 375.08736) rotate(-90)" fill="white">
          <tspan font-family="Helvetica Neue" font-size="12" fill="white" x="17.961017" y="12">MANAGEMENT</tspan>
        </text>
      </g>
      <g id="Graphic_2471">
        <clipPath id="clip_path_2">
          <rect x="0" y="0" width="204.71484" height="122.09302"/>
        </clipPath>
        <text clip-path="url(#clip_path_2)" transform="translate(1498.665 238.41432)" fill="white"/>
      </g>
      <g id="Graphic_2472">
        <text transform="translate(300.6198 492.05656)" fill="white">
          <tspan font-family="Helvetica Neue" font-size="12" fill="white" x="21.411017" y="12">AUTOMATION</tspan>
        </text>
      </g>
    </g>
  </g>
</svg>
