<?xml version="1.0" encoding="utf-8"?>
<!-- Generator: Adobe Illustrator 27.3.1, SVG Export Plug-In . SVG Version: 6.00 Build 0)  -->
<svg version="1.1" id="Layer_1" xmlns="http://www.w3.org/2000/svg" xmlns:xlink="http://www.w3.org/1999/xlink" x="0px" y="0px"
	 viewBox="0 0 619.67 260" style="enable-background:new 0 0 619.67 260;" xml:space="preserve">
<style type="text/css">
	
		.st0{fill:none;stroke:#FF6333;stroke-width:7.4822;stroke-linecap:round;stroke-linejoin:round;stroke-miterlimit:10;stroke-dasharray:1.247,18.7054;}
	.st1{fill:#FF6333;}
	.st2{fill:#18181A;}
	.st3{fill:none;stroke:#3D3E62;stroke-width:12.4014;stroke-linecap:round;stroke-linejoin:round;stroke-miterlimit:10;}
	.st4{fill:none;stroke:#FF6333;stroke-width:4.5581;stroke-linecap:round;stroke-linejoin:round;stroke-miterlimit:10;}
</style>
<path class="st0" d="M101.6,195.09c-17.38,17.38-45.13,14.08-63.83-4.62s-19.78-47.95-2.4-65.32"/>
<path class="st1" d="M58.1,127.29c-0.53,0-1.04,0.21-1.41,0.59c-13.06,13.62-14.15,34.19-2.32,46.03
	c11.83,11.83,33.11,10.74,46.75-2.32c0.38-0.37,0.59-0.88,0.59-1.41v-40.95c0-1.07-0.87-1.94-1.94-1.94L58.1,127.29z"/>
<g>
	<path class="st2" d="M281.08,76.16L251.7,10.19h12.96l23.72,55.4h-3.94l23.72-55.4h12.58l-29.38,65.96H281.08z"/>
	<path class="st2" d="M342.15,77.02c-5.28,0-9.89-0.96-13.63-2.98c-3.74-1.92-6.72-4.8-8.74-8.45c-2.02-3.65-3.07-8.07-3.07-13.06
		c0-4.9,0.96-9.22,2.88-12.96c1.92-3.65,4.61-6.53,8.07-8.64c3.46-2.11,7.49-3.07,12.1-3.07c4.51,0,8.35,0.96,11.43,2.88
		c3.07,1.92,5.38,4.61,7.01,8.16c1.63,3.46,2.4,7.59,2.4,12.29v3.07h-34.47v-6.15h26.12l-1.63,1.34c0-4.32-0.96-7.68-2.78-9.99
		c-1.82-2.3-4.51-3.46-7.97-3.46c-2.59,0-4.8,0.67-6.63,1.92c-1.82,1.25-3.17,3.07-4.03,5.38c-0.96,2.3-1.44,5.09-1.44,8.45v1.25
		c0,5.09,1.25,8.93,3.74,11.43c2.5,2.5,6.15,3.74,10.75,3.74c2.69,0,5.19-0.38,7.49-1.06c2.3-0.67,4.61-1.92,6.72-3.55l3.46,7.87
		c-2.21,1.82-4.9,3.17-8.07,4.22C348.96,76.54,345.6,77.02,342.15,77.02z"/>
	<path class="st2" d="M369.03,76.16V40.63c0-1.92-0.1-3.94-0.19-5.86c-0.1-2.02-0.29-3.94-0.58-5.86h11.33l0.96,9.41h-1.15
		c1.54-3.26,3.74-5.86,6.63-7.59c2.98-1.82,6.34-2.69,10.18-2.69c5.57,0,9.7,1.54,12.58,4.7c2.78,3.17,4.22,7.97,4.22,14.59v28.9
		h-11.71V47.74c0-3.84-0.77-6.53-2.21-8.16c-1.44-1.63-3.65-2.5-6.63-2.5c-3.65,0-6.53,1.15-8.64,3.36
		c-2.11,2.21-3.17,5.28-3.17,9.03v26.69H369.03z"/>
	<path class="st2" d="M442.2,77.02c-4.13,0-7.78-0.96-10.85-2.98c-3.17-1.92-5.57-4.8-7.3-8.45c-1.73-3.65-2.59-8.07-2.59-13.15
		c0-5.09,0.86-9.51,2.59-13.15c1.73-3.65,4.22-6.43,7.3-8.45c3.07-1.92,6.72-2.98,10.85-2.98c4.03,0,7.49,0.96,10.56,2.98
		c3.07,1.92,4.99,4.61,6.05,7.87h-1.06l1.06-9.89h11.23c-0.19,1.92-0.38,3.94-0.48,5.86c-0.19,2.02-0.19,3.94-0.19,5.86v35.53
		h-11.71l-0.1-9.7h1.15c-0.96,3.26-3.07,5.86-6.05,7.78C449.5,76.06,446.04,77.02,442.2,77.02z M445.46,68.09
		c3.65,0,6.63-1.25,8.93-3.84c2.21-2.59,3.36-6.53,3.36-11.71s-1.15-9.12-3.36-11.71c-2.21-2.59-5.19-3.84-8.93-3.84
		c-3.65,0-6.63,1.25-8.93,3.84c-2.21,2.59-3.36,6.43-3.36,11.71s1.15,9.12,3.36,11.71C438.74,66.75,441.72,68.09,445.46,68.09z"/>
	<path class="st2" d="M484.83,76.16v-38.5h-9.12v-8.83h12.39l-3.26,2.98v-7.2c0-5.86,1.44-10.27,4.42-13.25
		c2.98-2.98,7.3-4.51,12.96-4.51c1.34,0,2.78,0.1,4.32,0.29c1.54,0.19,2.88,0.58,3.94,1.06v9.22c-0.77-0.29-1.82-0.58-2.88-0.77
		c-1.15-0.19-2.21-0.29-3.26-0.29c-2.4,0-4.32,0.67-5.76,2.11s-2.11,3.65-2.11,6.82v5.67l-1.73-2.02h32.84v47.24h-11.71v-38.5h-19.4
		v38.5H484.83z M515.27,19.99V8.56h13.06v11.43H515.27z"/>
</g>
<polyline class="st3" points="108.02,23.1 107.99,108.16 22.93,108.14 "/>
<polyline class="st3" points="122.33,206.1 122.35,121.04 207.41,121.07 "/>
<polyline class="st4" points="162.14,99.56 130.87,99.55 130.88,68.28 "/>
<g>
	<path d="M259.54,219.38V115.69h62.95v7.8h-53.83v39.57h50.74v7.79h-50.74v48.54H259.54z"/>
	<path d="M329.85,127.6v-11.18h12.06v11.18H329.85z M331.32,219.38v-73.69h8.97v73.69H331.32z"/>
	<path d="M355.88,219.38V162.9c0-2.84-0.07-5.71-0.22-8.6c-0.15-2.89-0.42-5.76-0.81-8.6h8.83l1.18,16.92l-1.77,0.15
		c0.98-4.12,2.74-7.52,5.3-10.22c2.55-2.7,5.49-4.73,8.82-6.1c3.33-1.37,6.77-2.06,10.3-2.06c1.27,0,2.48,0.07,3.6,0.22
		c1.13,0.15,2.18,0.37,3.16,0.66l-0.29,8.09c-1.18-0.39-2.35-0.64-3.53-0.74c-1.18-0.1-2.45-0.15-3.82-0.15
		c-4.41,0-8.26,1.08-11.55,3.24c-3.29,2.16-5.81,4.9-7.57,8.24c-1.77,3.33-2.65,6.72-2.65,10.15v45.3H355.88z"/>
	<path d="M429.28,220.56c-11.18,0-20.03-3.33-26.55-10c-6.52-6.67-9.78-15.93-9.78-27.8c0-7.84,1.45-14.61,4.34-20.3
		c2.89-5.69,6.94-10.12,12.13-13.31c5.2-3.19,11.23-4.78,18.09-4.78c6.57,0,12.11,1.4,16.62,4.19c4.51,2.79,7.99,6.77,10.44,11.91
		c2.45,5.15,3.68,11.25,3.68,18.31v4.12h-58.83v-6.47h53.25l-2.5,1.91c0-8.33-1.91-14.88-5.74-19.64
		c-3.82-4.75-9.51-7.13-17.06-7.13c-8.04,0-14.32,2.77-18.83,8.31c-4.51,5.54-6.77,12.87-6.77,21.99v1.03
		c0,9.81,2.43,17.26,7.28,22.36c4.85,5.1,11.64,7.65,20.37,7.65c4.51,0,8.73-0.68,12.65-2.06c3.92-1.37,7.7-3.72,11.33-7.06
		l3.68,6.62c-3.14,3.24-7.21,5.74-12.21,7.5C439.87,219.67,434.67,220.56,429.28,220.56z"/>
	<path d="M475.17,219.38V152.9h-14.71v-7.21h16.92l-2.21,2.35v-12.8c0-7.84,1.96-13.92,5.88-18.24c3.92-4.31,9.51-6.47,16.77-6.47
		c1.86,0,3.77,0.17,5.74,0.51c1.96,0.34,3.58,0.76,4.85,1.25v7.94c-1.18-0.49-2.6-0.93-4.26-1.32c-1.67-0.39-3.43-0.59-5.29-0.59
		c-3.24,0-5.96,0.69-8.16,2.06c-2.21,1.37-3.87,3.36-5,5.96c-1.13,2.6-1.69,5.91-1.69,9.93v11.77l-1.47-2.35h22.65v7.21h-21.03
		v66.48H475.17z M519.29,219.38V111.13h8.97v108.25H519.29z"/>
	<path d="M540.62,252.77l-2.21-7.79c4.61-1.08,8.43-2.38,11.47-3.9c3.04-1.52,5.59-3.51,7.65-5.96c2.06-2.45,3.87-5.49,5.44-9.12
		l3.82-8.83l-0.15,3.97l-32.21-75.45h10l28.09,68.1h-3.68l27.8-68.1h9.71l-34.12,80.75c-1.86,4.51-3.9,8.26-6.1,11.25
		c-2.21,2.99-4.58,5.49-7.13,7.5c-2.55,2.01-5.35,3.6-8.38,4.78C547.58,251.15,544.24,252.08,540.62,252.77z"/>
</g>
</svg>
